<svg width="48" height="72" viewBox="0 0 48 72" fill="none" xmlns="http://www.w3.org/2000/svg">
<g filter="url(#filter0_dd_8_424)">
<path d="M24 5C15.7071 5 9 11.7295 9 20.05C9 31.3375 24 48 24 48C24 48 39 31.3375 39 20.05C39 11.7295 32.2929 5 24 5ZM24 25.425C21.0429 25.425 18.6429 23.017 18.6429 20.05C18.6429 17.083 21.0429 14.675 24 14.675C26.9571 14.675 29.3571 17.083 29.3571 20.05C29.3571 23.017 26.9571 25.425 24 25.425Z" fill="white"/>
</g>
<rect x="11" y="7" width="26" height="26" rx="13" fill="#92C100"/>
<path d="M18.3752 25.5H29.6248C30.6559 25.5 31.5 24.6748 31.5 23.6665V16.3335C31.5 15.3253 30.656 14.5 29.6248 14.5H18.3752C17.3441 14.5 16.5 15.3252 16.5 16.3335V23.6665C16.5 24.6754 17.344 25.5 18.3752 25.5ZM17.4376 17.5253C18.6566 17.7546 19.5466 18.7628 19.5466 20.0004C19.5466 21.238 18.6558 22.2461 17.4376 22.4755V17.5253ZM24.4684 18.5799C25.0779 18.7634 25.5463 19.313 25.5463 20.0004C25.5463 20.6877 25.1247 21.2379 24.4684 21.4208V18.5799ZM23.5315 21.4208C22.922 21.2373 22.4536 20.6877 22.4536 20.0004C22.4536 19.313 22.8753 18.7628 23.5315 18.5799V21.4208ZM30.5623 22.4754C29.3434 22.2461 28.4533 21.2379 28.4533 20.0003C28.4533 18.7627 29.3441 17.7546 30.5623 17.5252V22.4754ZM30.5623 16.3342V16.6092C28.8282 16.8386 27.5157 18.259 27.5157 20.0011C27.5157 21.7423 28.8282 23.1635 30.5623 23.3929V23.668C30.5623 24.1724 30.1406 24.5847 29.6247 24.5847H24.4683V22.339C25.593 22.1096 26.4838 21.1472 26.4838 20.0018C26.4838 18.8558 25.6398 17.8475 24.4683 17.6647V15.4177H29.6247C30.1406 15.4177 30.5623 15.83 30.5623 16.3344V16.3342ZM18.3751 15.4175H23.5315V17.6632C22.4068 17.8925 21.516 18.855 21.516 20.0003C21.516 21.1464 22.36 22.1546 23.5315 22.3375V24.5832H18.3751C17.8592 24.5832 17.4375 24.1709 17.4375 23.6665V23.3914C19.1716 23.1621 20.4841 21.7416 20.4841 19.9996C20.4841 18.2584 19.1716 16.8371 17.4375 16.6078V16.3339C17.4375 15.8295 17.8592 15.4172 18.3751 15.4172V15.4175Z" fill="white"/>
<g filter="url(#filter1_dd_8_424)">
<circle cx="24" cy="54" r="5" fill="white"/>
<circle cx="24" cy="54" r="4" stroke="#92C100" stroke-width="2"/>
</g>
<defs>
<filter id="filter0_dd_8_424" x="0" y="0" width="48" height="61" filterUnits="userSpaceOnUse" color-interpolation-filters="sRGB">
<feFlood flood-opacity="0" result="BackgroundImageFix"/>
<feColorMatrix in="SourceAlpha" type="matrix" values="0 0 0 0 0 0 0 0 0 0 0 0 0 0 0 0 0 0 127 0" result="hardAlpha"/>
<feOffset dy="2"/>
<feGaussianBlur stdDeviation="1"/>
<feComposite in2="hardAlpha" operator="out"/>
<feColorMatrix type="matrix" values="0 0 0 0 0 0 0 0 0 0 0 0 0 0 0 0 0 0 0.1 0"/>
<feBlend mode="normal" in2="BackgroundImageFix" result="effect1_dropShadow_8_424"/>
<feColorMatrix in="SourceAlpha" type="matrix" values="0 0 0 0 0 0 0 0 0 0 0 0 0 0 0 0 0 0 127 0" result="hardAlpha"/>
<feOffset dy="4"/>
<feGaussianBlur stdDeviation="4.5"/>
<feComposite in2="hardAlpha" operator="out"/>
<feColorMatrix type="matrix" values="0 0 0 0 0 0 0 0 0 0 0 0 0 0 0 0 0 0 0.15 0"/>
<feBlend mode="normal" in2="effect1_dropShadow_8_424" result="effect2_dropShadow_8_424"/>
<feBlend mode="normal" in="SourceGraphic" in2="effect2_dropShadow_8_424" result="shape"/>
</filter>
<filter id="filter1_dd_8_424" x="10" y="44" width="28" height="28" filterUnits="userSpaceOnUse" color-interpolation-filters="sRGB">
<feFlood flood-opacity="0" result="BackgroundImageFix"/>
<feColorMatrix in="SourceAlpha" type="matrix" values="0 0 0 0 0 0 0 0 0 0 0 0 0 0 0 0 0 0 127 0" result="hardAlpha"/>
<feOffset dy="4"/>
<feGaussianBlur stdDeviation="4.5"/>
<feComposite in2="hardAlpha" operator="out"/>
<feColorMatrix type="matrix" values="0 0 0 0 0 0 0 0 0 0 0 0 0 0 0 0 0 0 0.15 0"/>
<feBlend mode="normal" in2="BackgroundImageFix" result="effect1_dropShadow_8_424"/>
<feColorMatrix in="SourceAlpha" type="matrix" values="0 0 0 0 0 0 0 0 0 0 0 0 0 0 0 0 0 0 127 0" result="hardAlpha"/>
<feOffset dy="2"/>
<feGaussianBlur stdDeviation="1"/>
<feComposite in2="hardAlpha" operator="out"/>
<feColorMatrix type="matrix" values="0 0 0 0 0 0 0 0 0 0 0 0 0 0 0 0 0 0 0.1 0"/>
<feBlend mode="normal" in2="effect1_dropShadow_8_424" result="effect2_dropShadow_8_424"/>
<feBlend mode="normal" in="SourceGraphic" in2="effect2_dropShadow_8_424" result="shape"/>
</filter>
</defs>
</svg>
