<svg width="58" height="85" viewBox="0 0 58 85" fill="none" xmlns="http://www.w3.org/2000/svg">
<g filter="url(#filter0_dd_57_154)">
<path d="M28.5349 5C17.7349 5 9 13.764 9 24.6C9 39.3 28.5349 61 28.5349 61C28.5349 61 48.0698 39.3 48.0698 24.6C48.0698 13.764 39.3349 5 28.5349 5ZM28.5349 31.6C24.6837 31.6 21.5581 28.464 21.5581 24.6C21.5581 20.736 24.6837 17.6 28.5349 17.6C32.386 17.6 35.5116 20.736 35.5116 24.6C35.5116 28.464 32.386 31.6 28.5349 31.6Z" fill="white"/>
</g>
<rect x="11.5" y="8" width="33.8" height="33.8" rx="16.9" fill="#D30093" fill-opacity="0.99"/>
<path d="M28.3999 34.8999C27.0332 34.8999 25.7416 34.6374 24.5249 34.1124C23.3082 33.5874 22.2457 32.8707 21.3374 31.9624C20.4291 31.0541 19.7124 29.9916 19.1874 28.7749C18.6624 27.5582 18.3999 26.2666 18.3999 24.8999C18.3999 23.5166 18.6707 22.2166 19.2124 20.9999C19.7541 19.7832 20.4874 18.7249 21.4124 17.8249C22.3374 16.9249 23.4166 16.2124 24.6499 15.6874C25.8832 15.1624 27.1999 14.8999 28.5999 14.8999C29.9332 14.8999 31.1916 15.1291 32.3749 15.5874C33.5582 16.0457 34.5957 16.6791 35.4874 17.4874C36.3791 18.2957 37.0874 19.2541 37.6124 20.3624C38.1374 21.4707 38.3999 22.6666 38.3999 23.9499C38.3999 25.8666 37.8166 27.3374 36.6499 28.3624C35.4832 29.3874 34.0666 29.8999 32.3999 29.8999H30.5499C30.3999 29.8999 30.2957 29.9416 30.2374 30.0249C30.1791 30.1082 30.1499 30.1999 30.1499 30.2999C30.1499 30.4999 30.2749 30.7874 30.5249 31.1624C30.7749 31.5374 30.8999 31.9666 30.8999 32.4499C30.8999 33.2832 30.6707 33.8999 30.2124 34.2999C29.7541 34.6999 29.1499 34.8999 28.3999 34.8999ZM23.9749 25.4749C24.2582 25.1916 24.3999 24.8332 24.3999 24.3999C24.3999 23.9666 24.2582 23.6082 23.9749 23.3249C23.6916 23.0416 23.3332 22.8999 22.8999 22.8999C22.4666 22.8999 22.1082 23.0416 21.8249 23.3249C21.5416 23.6082 21.3999 23.9666 21.3999 24.3999C21.3999 24.8332 21.5416 25.1916 21.8249 25.4749C22.1082 25.7582 22.4666 25.8999 22.8999 25.8999C23.3332 25.8999 23.6916 25.7582 23.9749 25.4749ZM26.9749 21.4749C27.2582 21.1916 27.3999 20.8332 27.3999 20.3999C27.3999 19.9666 27.2582 19.6082 26.9749 19.3249C26.6916 19.0416 26.3332 18.8999 25.8999 18.8999C25.4666 18.8999 25.1082 19.0416 24.8249 19.3249C24.5416 19.6082 24.3999 19.9666 24.3999 20.3999C24.3999 20.8332 24.5416 21.1916 24.8249 21.4749C25.1082 21.7582 25.4666 21.8999 25.8999 21.8999C26.3332 21.8999 26.6916 21.7582 26.9749 21.4749ZM31.9749 21.4749C32.2582 21.1916 32.3999 20.8332 32.3999 20.3999C32.3999 19.9666 32.2582 19.6082 31.9749 19.3249C31.6916 19.0416 31.3332 18.8999 30.8999 18.8999C30.4666 18.8999 30.1082 19.0416 29.8249 19.3249C29.5416 19.6082 29.3999 19.9666 29.3999 20.3999C29.3999 20.8332 29.5416 21.1916 29.8249 21.4749C30.1082 21.7582 30.4666 21.8999 30.8999 21.8999C31.3332 21.8999 31.6916 21.7582 31.9749 21.4749ZM34.9749 25.4749C35.2582 25.1916 35.3999 24.8332 35.3999 24.3999C35.3999 23.9666 35.2582 23.6082 34.9749 23.3249C34.6916 23.0416 34.3332 22.8999 33.8999 22.8999C33.4666 22.8999 33.1082 23.0416 32.8249 23.3249C32.5416 23.6082 32.3999 23.9666 32.3999 24.3999C32.3999 24.8332 32.5416 25.1916 32.8249 25.4749C33.1082 25.7582 33.4666 25.8999 33.8999 25.8999C34.3332 25.8999 34.6916 25.7582 34.9749 25.4749ZM28.3999 32.8999C28.5499 32.8999 28.6707 32.8582 28.7624 32.7749C28.8541 32.6916 28.8999 32.5832 28.8999 32.4499C28.8999 32.2166 28.7749 31.9416 28.5249 31.6249C28.2749 31.3082 28.1499 30.8332 28.1499 30.1999C28.1499 29.4999 28.3916 28.9416 28.8749 28.5249C29.3582 28.1082 29.9499 27.8999 30.6499 27.8999H32.3999C33.4999 27.8999 34.4416 27.5791 35.2249 26.9374C36.0082 26.2957 36.3999 25.2999 36.3999 23.9499C36.3999 21.9332 35.6291 20.2541 34.0874 18.9124C32.5457 17.5707 30.7166 16.8999 28.5999 16.8999C26.3332 16.8999 24.3999 17.6749 22.7999 19.2249C21.1999 20.7749 20.3999 22.6666 20.3999 24.8999C20.3999 27.1166 21.1791 29.0041 22.7374 30.5624C24.2957 32.1207 26.1832 32.8999 28.3999 32.8999Z" fill="white"/>
<g filter="url(#filter1_dd_57_154)">
<circle cx="28.5" cy="67" r="5" fill="white"/>
<circle cx="28.5" cy="67" r="4" stroke="#D30394" stroke-width="2"/>
</g>
<defs>
<filter id="filter0_dd_57_154" x="0" y="0" width="57.0698" height="74" filterUnits="userSpaceOnUse" color-interpolation-filters="sRGB">
<feFlood flood-opacity="0" result="BackgroundImageFix"/>
<feColorMatrix in="SourceAlpha" type="matrix" values="0 0 0 0 0 0 0 0 0 0 0 0 0 0 0 0 0 0 127 0" result="hardAlpha"/>
<feOffset dy="2"/>
<feGaussianBlur stdDeviation="1"/>
<feComposite in2="hardAlpha" operator="out"/>
<feColorMatrix type="matrix" values="0 0 0 0 0 0 0 0 0 0 0 0 0 0 0 0 0 0 0.1 0"/>
<feBlend mode="normal" in2="BackgroundImageFix" result="effect1_dropShadow_57_154"/>
<feColorMatrix in="SourceAlpha" type="matrix" values="0 0 0 0 0 0 0 0 0 0 0 0 0 0 0 0 0 0 127 0" result="hardAlpha"/>
<feOffset dy="4"/>
<feGaussianBlur stdDeviation="4.5"/>
<feComposite in2="hardAlpha" operator="out"/>
<feColorMatrix type="matrix" values="0 0 0 0 0 0 0 0 0 0 0 0 0 0 0 0 0 0 0.15 0"/>
<feBlend mode="normal" in2="effect1_dropShadow_57_154" result="effect2_dropShadow_57_154"/>
<feBlend mode="normal" in="SourceGraphic" in2="effect2_dropShadow_57_154" result="shape"/>
</filter>
<filter id="filter1_dd_57_154" x="14.5" y="57" width="28" height="28" filterUnits="userSpaceOnUse" color-interpolation-filters="sRGB">
<feFlood flood-opacity="0" result="BackgroundImageFix"/>
<feColorMatrix in="SourceAlpha" type="matrix" values="0 0 0 0 0 0 0 0 0 0 0 0 0 0 0 0 0 0 127 0" result="hardAlpha"/>
<feOffset dy="4"/>
<feGaussianBlur stdDeviation="4.5"/>
<feComposite in2="hardAlpha" operator="out"/>
<feColorMatrix type="matrix" values="0 0 0 0 0 0 0 0 0 0 0 0 0 0 0 0 0 0 0.15 0"/>
<feBlend mode="normal" in2="BackgroundImageFix" result="effect1_dropShadow_57_154"/>
<feColorMatrix in="SourceAlpha" type="matrix" values="0 0 0 0 0 0 0 0 0 0 0 0 0 0 0 0 0 0 127 0" result="hardAlpha"/>
<feOffset dy="2"/>
<feGaussianBlur stdDeviation="1"/>
<feComposite in2="hardAlpha" operator="out"/>
<feColorMatrix type="matrix" values="0 0 0 0 0 0 0 0 0 0 0 0 0 0 0 0 0 0 0.1 0"/>
<feBlend mode="normal" in2="effect1_dropShadow_57_154" result="effect2_dropShadow_57_154"/>
<feBlend mode="normal" in="SourceGraphic" in2="effect2_dropShadow_57_154" result="shape"/>
</filter>
</defs>
</svg>
