<svg width="58" height="85" viewBox="0 0 58 85" fill="none" xmlns="http://www.w3.org/2000/svg">
<g filter="url(#filter0_dd_57_177)">
<path d="M28.5349 5C17.7349 5 9 13.764 9 24.6C9 39.3 28.5349 61 28.5349 61C28.5349 61 48.0698 39.3 48.0698 24.6C48.0698 13.764 39.3349 5 28.5349 5ZM28.5349 31.6C24.6837 31.6 21.5581 28.464 21.5581 24.6C21.5581 20.736 24.6837 17.6 28.5349 17.6C32.386 17.6 35.5116 20.736 35.5116 24.6C35.5116 28.464 32.386 31.6 28.5349 31.6Z" fill="white"/>
</g>
<rect x="11.5" y="8" width="33.8" height="33.8" rx="16.9" fill="#6200D3" fill-opacity="0.99"/>
<path fill-rule="evenodd" clip-rule="evenodd" d="M31.3521 18.2661C31.6884 17.8517 32.297 17.7873 32.7114 18.1235C33.1258 18.4598 33.19 19.0676 32.854 19.4829L32.0103 20.5229C31.156 21.5779 29.9608 22.3442 28.646 22.6821L28.5464 22.7075V26.7905L30.1323 28.2983C30.962 29.087 31.2746 30.3017 30.9292 31.3921L30.1968 33.7056C30.048 34.1759 29.6127 34.477 29.144 34.4771C29.0339 34.4771 28.9211 34.4606 28.8101 34.4253C28.2286 34.2411 27.9061 33.62 28.0903 33.0386L28.8228 30.7251C28.9149 30.434 28.8311 30.1104 28.6099 29.8999L26.6821 28.0669V29.1421C26.6821 29.7975 26.3269 30.4045 25.7554 30.7261C25.4791 30.8815 25.1714 30.9595 24.8648 30.9595C24.5377 30.9594 24.2109 30.8698 23.9224 30.6948L21.5112 29.231C20.9899 28.9144 20.8236 28.2357 21.1401 27.7144C21.4567 27.1922 22.1354 27.0267 22.6567 27.3433L24.4731 28.4468C24.4729 28.4356 24.4487 27.3656 24.4487 26.7856C24.4487 26.2017 24.4478 23.3472 24.4478 23.3472C23.7119 23.6835 23.0729 24.2156 22.6157 24.8882L22.0523 25.7163C21.8648 25.9918 21.5617 26.1401 21.2524 26.1401C21.065 26.1401 20.8756 26.0858 20.7095 25.9731C20.2682 25.673 20.1537 25.0719 20.4536 24.6304L21.0171 23.8013C21.827 22.6097 23.0321 21.7188 24.4087 21.2944C25.0179 21.1062 25.6495 21.0122 26.2866 21.0122H26.2974L26.8071 21.0132C27.1854 21.0148 27.5568 20.9665 27.9194 20.8735L28.1655 20.8101C29.0815 20.574 29.914 20.0403 30.5093 19.3052L31.3521 18.2661ZM37.6255 21.2173C37.8212 21.1918 38.0195 21.2524 38.1675 21.3823V21.3804C38.3153 21.5111 38.3998 21.6987 38.3999 21.895V26.4761C38.3998 27.1337 37.7897 27.6487 37.0112 27.6489C36.2333 27.6489 35.6227 27.1339 35.6226 26.4761C35.6226 25.8182 36.2325 25.3032 37.0112 25.3032C37.1311 25.3033 37.2448 25.3201 37.354 25.3423V23.1655L34.0005 23.6021V27.0493C34.0003 27.7062 33.3905 28.2222 32.6118 28.2222C31.8332 28.2221 31.2243 27.707 31.2241 27.0493C31.2241 26.3915 31.8331 25.8765 32.6118 25.8765C32.7318 25.8765 32.8445 25.8916 32.9546 25.9146V22.4272C32.9547 22.0838 33.2121 21.7922 33.5523 21.7476L37.6255 21.2173ZM20.521 16.9653C20.6434 16.9655 20.7481 17.048 20.7769 17.1655C20.976 17.9959 21.6148 18.6358 22.4419 18.8364C22.5586 18.8645 22.6403 18.9687 22.6411 19.0903C22.6411 19.2119 22.5603 19.3173 22.4429 19.3462L22.4419 19.3472C21.6269 19.5437 20.9733 20.1972 20.7759 21.0122C20.7471 21.1288 20.6426 21.2113 20.521 21.2114H20.52V21.2124C20.3984 21.2124 20.294 21.1306 20.2651 21.0132C20.0678 20.1975 19.4139 19.5438 18.5991 19.3472C18.4816 19.3176 18.3991 19.2128 18.3999 19.0903C18.3999 18.9695 18.4825 18.8644 18.6001 18.8364C19.4271 18.6357 20.0661 17.9958 20.2651 17.1655C20.2939 17.0479 20.3983 16.9653 20.52 16.9653H20.521ZM26.4741 16.2124C27.6393 16.2233 28.5756 17.1761 28.5649 18.3413C28.5549 19.5065 27.6022 20.4428 26.437 20.4321L26.436 20.4312C25.2708 20.4213 24.3345 19.4685 24.3452 18.3032C24.356 17.138 25.3089 16.2017 26.4741 16.2124ZM35.1929 15.3228C35.2881 15.3229 35.3699 15.386 35.3921 15.478C35.5484 16.1258 36.0477 16.6264 36.6939 16.7827C36.7843 16.8049 36.8483 16.8874 36.8491 16.9819C36.8491 17.0535 36.814 17.1179 36.7573 17.1548L36.6939 17.1821C36.0566 17.336 35.5459 17.8475 35.3921 18.4839C35.3698 18.5748 35.2889 18.6389 35.1939 18.6392H35.1929C35.0976 18.6392 35.016 18.5749 34.9937 18.4839C34.8487 17.8862 34.3905 17.3994 33.8091 17.2144L33.6919 17.1821C33.5998 17.1591 33.5359 17.0773 33.5366 16.9819C33.5366 16.8874 33.6016 16.8049 33.6929 16.7827C34.339 16.6264 34.8382 16.1266 34.9937 15.478C35.015 15.3867 35.0975 15.3228 35.1929 15.3228Z" fill="white"/>
<g filter="url(#filter1_dd_57_177)">
<circle cx="28.5" cy="67" r="5" fill="white"/>
<circle cx="28.5" cy="67" r="4" stroke="#6403D3" stroke-width="2"/>
</g>
<defs>
<filter id="filter0_dd_57_177" x="0" y="0" width="57.0698" height="74" filterUnits="userSpaceOnUse" color-interpolation-filters="sRGB">
<feFlood flood-opacity="0" result="BackgroundImageFix"/>
<feColorMatrix in="SourceAlpha" type="matrix" values="0 0 0 0 0 0 0 0 0 0 0 0 0 0 0 0 0 0 127 0" result="hardAlpha"/>
<feOffset dy="2"/>
<feGaussianBlur stdDeviation="1"/>
<feComposite in2="hardAlpha" operator="out"/>
<feColorMatrix type="matrix" values="0 0 0 0 0 0 0 0 0 0 0 0 0 0 0 0 0 0 0.1 0"/>
<feBlend mode="normal" in2="BackgroundImageFix" result="effect1_dropShadow_57_177"/>
<feColorMatrix in="SourceAlpha" type="matrix" values="0 0 0 0 0 0 0 0 0 0 0 0 0 0 0 0 0 0 127 0" result="hardAlpha"/>
<feOffset dy="4"/>
<feGaussianBlur stdDeviation="4.5"/>
<feComposite in2="hardAlpha" operator="out"/>
<feColorMatrix type="matrix" values="0 0 0 0 0 0 0 0 0 0 0 0 0 0 0 0 0 0 0.15 0"/>
<feBlend mode="normal" in2="effect1_dropShadow_57_177" result="effect2_dropShadow_57_177"/>
<feBlend mode="normal" in="SourceGraphic" in2="effect2_dropShadow_57_177" result="shape"/>
</filter>
<filter id="filter1_dd_57_177" x="14.5" y="57" width="28" height="28" filterUnits="userSpaceOnUse" color-interpolation-filters="sRGB">
<feFlood flood-opacity="0" result="BackgroundImageFix"/>
<feColorMatrix in="SourceAlpha" type="matrix" values="0 0 0 0 0 0 0 0 0 0 0 0 0 0 0 0 0 0 127 0" result="hardAlpha"/>
<feOffset dy="4"/>
<feGaussianBlur stdDeviation="4.5"/>
<feComposite in2="hardAlpha" operator="out"/>
<feColorMatrix type="matrix" values="0 0 0 0 0 0 0 0 0 0 0 0 0 0 0 0 0 0 0.15 0"/>
<feBlend mode="normal" in2="BackgroundImageFix" result="effect1_dropShadow_57_177"/>
<feColorMatrix in="SourceAlpha" type="matrix" values="0 0 0 0 0 0 0 0 0 0 0 0 0 0 0 0 0 0 127 0" result="hardAlpha"/>
<feOffset dy="2"/>
<feGaussianBlur stdDeviation="1"/>
<feComposite in2="hardAlpha" operator="out"/>
<feColorMatrix type="matrix" values="0 0 0 0 0 0 0 0 0 0 0 0 0 0 0 0 0 0 0.1 0"/>
<feBlend mode="normal" in2="effect1_dropShadow_57_177" result="effect2_dropShadow_57_177"/>
<feBlend mode="normal" in="SourceGraphic" in2="effect2_dropShadow_57_177" result="shape"/>
</filter>
</defs>
</svg>
