<svg width="58" height="85" viewBox="0 0 58 85" fill="none" xmlns="http://www.w3.org/2000/svg">
<g filter="url(#filter0_dd_57_248)">
<path d="M28.5349 5C17.7349 5 9 13.764 9 24.6C9 39.3 28.5349 61 28.5349 61C28.5349 61 48.0698 39.3 48.0698 24.6C48.0698 13.764 39.3349 5 28.5349 5ZM28.5349 31.6C24.6837 31.6 21.5581 28.464 21.5581 24.6C21.5581 20.736 24.6837 17.6 28.5349 17.6C32.386 17.6 35.5116 20.736 35.5116 24.6C35.5116 28.464 32.386 31.6 28.5349 31.6Z" fill="white"/>
</g>
<rect x="11.5" y="8" width="33.8" height="33.8" rx="16.9" fill="#44BD03" fill-opacity="0.99"/>
<mask id="path-3-outside-1_57_248" maskUnits="userSpaceOnUse" x="16.8999" y="14.9717" width="23" height="20" fill="black">
<rect fill="white" x="16.8999" y="14.9717" width="23" height="20"/>
<path d="M28.7866 15.9717C33.0032 15.9718 36.4351 19.4036 36.4351 23.6201V23.9346C37.7975 23.9634 38.8999 25.0782 38.8999 26.4502C38.8998 27.8389 37.7711 28.9677 36.3823 28.9678H36.0962C35.2276 31.7715 32.6406 33.828 29.5552 33.8281H27.5718C24.5173 33.8281 21.8945 31.8457 21.021 28.9727H20.4175C19.031 28.9727 17.8999 27.841 17.8999 26.4521C17.9 25.0634 19.0311 23.9326 20.4175 23.9326H20.6919V23.6201C20.6919 19.4035 24.1311 15.9717 28.355 15.9717H28.7866ZM28.3521 17.0146C24.7033 17.0147 21.7349 19.9786 21.7349 23.6201V26.9492C21.7349 27.4094 21.7918 27.8602 21.9038 28.3252C22.529 30.9501 24.8609 32.7832 27.5718 32.7832H29.5552C32.7717 32.783 35.3889 30.1656 35.3892 26.9492H35.394V23.6172C35.3939 20.3457 32.996 17.6424 29.8677 17.1221L30.2017 17.9717C30.5309 18.8044 30.512 19.7113 30.147 20.5273C29.7819 21.3434 29.1159 21.9617 28.2759 22.2695C28.1184 22.334 27.9224 22.3672 27.6909 22.3672C27.0347 22.3671 26.4525 21.9945 26.1733 21.4004C26.0708 21.2024 26.0181 20.9611 26.0181 20.6963C26.0182 19.835 26.6629 19.119 27.5171 19.0283L28.2593 18.9453L28.3687 19.9834L27.6245 20.0615C27.2524 20.1021 27.0593 20.4075 27.0591 20.6914C27.0591 20.7916 27.0755 20.8756 27.1089 20.9424C27.2234 21.1833 27.4356 21.3192 27.686 21.3193C27.7789 21.3193 27.8506 21.3096 27.896 21.293C28.4854 21.0782 28.9388 20.6556 29.187 20.0996C29.4351 19.5436 29.4474 18.9233 29.2231 18.3555L28.6958 17.0146H28.3521ZM27.3306 26.5381C27.3306 27.1275 27.8105 27.6074 28.3999 27.6074C28.9893 27.6074 29.4693 27.1275 29.4741 26.5381H30.5171C30.5171 27.7048 29.5695 28.6521 28.4028 28.6523C27.2359 28.6523 26.2876 27.7026 26.2876 26.5381H27.3306ZM20.4175 24.9775C19.5919 24.9775 18.943 25.6266 18.9429 26.4521C18.9429 27.2659 19.6061 27.9268 20.4175 27.9268H20.771C20.7233 27.6025 20.6919 27.2783 20.6919 26.9492V24.9775H20.4175ZM36.4321 26.9492C36.4321 27.283 36.3798 27.6024 36.3345 27.9219H36.3823C37.196 27.9218 37.8574 27.261 37.855 26.4473C37.8548 25.6528 37.2195 25.013 36.4321 24.9844V26.9492ZM25.3237 24.2334C25.6913 24.2334 25.9895 24.5309 25.9897 24.8984C25.9897 25.2661 25.6914 25.5645 25.3237 25.5645C24.9561 25.5643 24.6577 25.2661 24.6577 24.8984C24.6579 24.531 24.9563 24.2335 25.3237 24.2334ZM31.4731 24.2334C31.8407 24.2334 32.1389 24.5309 32.1392 24.8984C32.1392 25.2661 31.8409 25.5645 31.4731 25.5645C31.1056 25.5642 30.8081 25.266 30.8081 24.8984C30.8083 24.5311 31.1058 24.2336 31.4731 24.2334Z"/>
</mask>
<path d="M28.7866 15.9717C33.0032 15.9718 36.4351 19.4036 36.4351 23.6201V23.9346C37.7975 23.9634 38.8999 25.0782 38.8999 26.4502C38.8998 27.8389 37.7711 28.9677 36.3823 28.9678H36.0962C35.2276 31.7715 32.6406 33.828 29.5552 33.8281H27.5718C24.5173 33.8281 21.8945 31.8457 21.021 28.9727H20.4175C19.031 28.9727 17.8999 27.841 17.8999 26.4521C17.9 25.0634 19.0311 23.9326 20.4175 23.9326H20.6919V23.6201C20.6919 19.4035 24.1311 15.9717 28.355 15.9717H28.7866ZM28.3521 17.0146C24.7033 17.0147 21.7349 19.9786 21.7349 23.6201V26.9492C21.7349 27.4094 21.7918 27.8602 21.9038 28.3252C22.529 30.9501 24.8609 32.7832 27.5718 32.7832H29.5552C32.7717 32.783 35.3889 30.1656 35.3892 26.9492H35.394V23.6172C35.3939 20.3457 32.996 17.6424 29.8677 17.1221L30.2017 17.9717C30.5309 18.8044 30.512 19.7113 30.147 20.5273C29.7819 21.3434 29.1159 21.9617 28.2759 22.2695C28.1184 22.334 27.9224 22.3672 27.6909 22.3672C27.0347 22.3671 26.4525 21.9945 26.1733 21.4004C26.0708 21.2024 26.0181 20.9611 26.0181 20.6963C26.0182 19.835 26.6629 19.119 27.5171 19.0283L28.2593 18.9453L28.3687 19.9834L27.6245 20.0615C27.2524 20.1021 27.0593 20.4075 27.0591 20.6914C27.0591 20.7916 27.0755 20.8756 27.1089 20.9424C27.2234 21.1833 27.4356 21.3192 27.686 21.3193C27.7789 21.3193 27.8506 21.3096 27.896 21.293C28.4854 21.0782 28.9388 20.6556 29.187 20.0996C29.4351 19.5436 29.4474 18.9233 29.2231 18.3555L28.6958 17.0146H28.3521ZM27.3306 26.5381C27.3306 27.1275 27.8105 27.6074 28.3999 27.6074C28.9893 27.6074 29.4693 27.1275 29.4741 26.5381H30.5171C30.5171 27.7048 29.5695 28.6521 28.4028 28.6523C27.2359 28.6523 26.2876 27.7026 26.2876 26.5381H27.3306ZM20.4175 24.9775C19.5919 24.9775 18.943 25.6266 18.9429 26.4521C18.9429 27.2659 19.6061 27.9268 20.4175 27.9268H20.771C20.7233 27.6025 20.6919 27.2783 20.6919 26.9492V24.9775H20.4175ZM36.4321 26.9492C36.4321 27.283 36.3798 27.6024 36.3345 27.9219H36.3823C37.196 27.9218 37.8574 27.261 37.855 26.4473C37.8548 25.6528 37.2195 25.013 36.4321 24.9844V26.9492ZM25.3237 24.2334C25.6913 24.2334 25.9895 24.5309 25.9897 24.8984C25.9897 25.2661 25.6914 25.5645 25.3237 25.5645C24.9561 25.5643 24.6577 25.2661 24.6577 24.8984C24.6579 24.531 24.9563 24.2335 25.3237 24.2334ZM31.4731 24.2334C31.8407 24.2334 32.1389 24.5309 32.1392 24.8984C32.1392 25.2661 31.8409 25.5645 31.4731 25.5645C31.1056 25.5642 30.8081 25.266 30.8081 24.8984C30.8083 24.5311 31.1058 24.2336 31.4731 24.2334Z" fill="white"/>
<path d="M28.7866 15.9717L28.7866 15.4717H28.7866V15.9717ZM36.4351 23.9346H35.9351V24.4241L36.4245 24.4345L36.4351 23.9346ZM38.8999 26.4502L39.3999 26.4502V26.4502H38.8999ZM36.3823 28.9678V29.4678H36.3823L36.3823 28.9678ZM36.0962 28.9678V28.4678H35.7277L35.6186 28.8198L36.0962 28.9678ZM29.5552 33.8281V34.3281H29.5552L29.5552 33.8281ZM27.5718 33.8281L27.5718 34.3281H27.5718V33.8281ZM21.021 28.9727L21.4994 28.8272L21.3916 28.4727H21.021V28.9727ZM20.4175 28.9727L20.4175 29.4727H20.4175V28.9727ZM17.8999 26.4521L17.3999 26.4521V26.4521H17.8999ZM20.4175 23.9326V23.4326H20.4175L20.4175 23.9326ZM20.6919 23.9326V24.4326H21.1919V23.9326H20.6919ZM28.3521 17.0146V16.5146H28.352L28.3521 17.0146ZM21.7349 26.9492H21.2349V26.9493L21.7349 26.9492ZM21.9038 28.3252L22.3902 28.2093L22.3899 28.2081L21.9038 28.3252ZM27.5718 32.7832L27.5718 33.2832H27.5718V32.7832ZM29.5552 32.7832V33.2832H29.5552L29.5552 32.7832ZM35.3892 26.9492V26.4492H34.8892L34.8892 26.9492L35.3892 26.9492ZM35.394 26.9492V27.4492H35.894V26.9492H35.394ZM35.394 23.6172H35.894V23.6172L35.394 23.6172ZM29.8677 17.1221L29.9497 16.6288L29.0797 16.4841L29.4023 17.305L29.8677 17.1221ZM30.2017 17.9717L29.7363 18.1546L29.7367 18.1555L30.2017 17.9717ZM30.147 20.5273L30.6034 20.7315L30.6034 20.7315L30.147 20.5273ZM28.2759 22.2695L28.1038 21.8001L28.0951 21.8032L28.0866 21.8067L28.2759 22.2695ZM27.6909 22.3672L27.6909 22.8672H27.6909V22.3672ZM26.1733 21.4004L26.6259 21.1878L26.6218 21.179L26.6173 21.1704L26.1733 21.4004ZM26.0181 20.6963L25.5181 20.6962V20.6963H26.0181ZM27.5171 19.0283L27.5699 19.5255L27.5727 19.5252L27.5171 19.0283ZM28.2593 18.9453L28.7565 18.8929L28.7038 18.3925L28.2037 18.4484L28.2593 18.9453ZM28.3687 19.9834L28.4209 20.4807L28.9183 20.4284L28.8659 19.931L28.3687 19.9834ZM27.6245 20.0615L27.5723 19.5643L27.5703 19.5645L27.6245 20.0615ZM27.0591 20.6914L26.5591 20.6911V20.6914H27.0591ZM27.1089 20.9424L27.5606 20.7277L27.5561 20.7188L27.1089 20.9424ZM27.686 21.3193L27.6858 21.8193H27.686V21.3193ZM27.896 21.293L27.7248 20.8232L27.7237 20.8236L27.896 21.293ZM29.187 20.0996L29.6436 20.3034L29.6436 20.3034L29.187 20.0996ZM29.2231 18.3555L28.7578 18.5385L28.7581 18.5391L29.2231 18.3555ZM28.6958 17.0146L29.1611 16.8316L29.0364 16.5146H28.6958V17.0146ZM27.3306 26.5381H27.8306V26.0381H27.3306V26.5381ZM28.3999 27.6074L28.3999 28.1074H28.3999V27.6074ZM29.4741 26.5381V26.0381H28.9782L28.9741 26.534L29.4741 26.5381ZM30.5171 26.5381H31.0171V26.0381H30.5171V26.5381ZM28.4028 28.6523V29.1523H28.4029L28.4028 28.6523ZM26.2876 26.5381V26.0381H25.7876V26.5381H26.2876ZM20.4175 24.9775V24.4775H20.4175L20.4175 24.9775ZM18.9429 26.4521L18.4429 26.4521V26.4521H18.9429ZM20.4175 27.9268L20.4175 28.4268H20.4175V27.9268ZM20.771 27.9268V28.4268H21.3499L21.2657 27.854L20.771 27.9268ZM20.6919 26.9492H20.1919V26.9493L20.6919 26.9492ZM20.6919 24.9775H21.1919V24.4775H20.6919V24.9775ZM36.4321 26.9492L36.9321 26.9493V26.9492H36.4321ZM36.3345 27.9219L35.8394 27.8517L35.7586 28.4219H36.3345V27.9219ZM36.3823 27.9219V28.4219H36.3824L36.3823 27.9219ZM37.855 26.4473L37.355 26.4474L37.355 26.4487L37.855 26.4473ZM36.4321 24.9844L36.4503 24.4847L35.9321 24.4659V24.9844H36.4321ZM25.3237 24.2334V23.7334H25.3236L25.3237 24.2334ZM25.9897 24.8984H26.4897V24.8981L25.9897 24.8984ZM25.3237 25.5645L25.3236 26.0645H25.3237V25.5645ZM24.6577 24.8984L24.1577 24.8981V24.8984H24.6577ZM31.4731 24.2334V23.7334H31.4728L31.4731 24.2334ZM32.1392 24.8984H32.6392V24.8981L32.1392 24.8984ZM31.4731 25.5645L31.4728 26.0645H31.4731V25.5645ZM30.8081 24.8984L30.3081 24.8981V24.8984H30.8081ZM28.7866 15.9717L28.7866 16.4717C32.7271 16.4718 35.9351 19.6797 35.9351 23.6201H36.4351H36.9351C36.9351 19.1274 33.2794 15.4718 28.7866 15.4717L28.7866 15.9717ZM36.4351 23.6201H35.9351V23.9346H36.4351H36.9351V23.6201H36.4351ZM36.4351 23.9346L36.4245 24.4345C37.5167 24.4575 38.3999 25.3519 38.3999 26.4502H38.8999H39.3999C39.3999 24.8045 38.0784 23.4692 36.4456 23.4347L36.4351 23.9346ZM38.8999 26.4502L38.3999 26.4502C38.3998 27.5628 37.4949 28.4677 36.3823 28.4678L36.3823 28.9678L36.3823 29.4678C38.0473 29.4677 39.3998 28.115 39.3999 26.4502L38.8999 26.4502ZM36.3823 28.9678V28.4678H36.0962V28.9678V29.4678H36.3823V28.9678ZM36.0962 28.9678L35.6186 28.8198C34.8115 31.4248 32.4105 33.328 29.5552 33.3281L29.5552 33.8281L29.5552 34.3281C32.8706 34.328 35.6436 32.1183 36.5738 29.1157L36.0962 28.9678ZM29.5552 33.8281V33.3281H27.5718V33.8281V34.3281H29.5552V33.8281ZM27.5718 33.8281L27.5718 33.3281C24.7397 33.3281 22.3095 31.4918 21.4994 28.8272L21.021 28.9727L20.5426 29.1181C21.4795 32.1995 24.295 34.3281 27.5718 34.3281L27.5718 33.8281ZM21.021 28.9727V28.4727H20.4175V28.9727V29.4727H21.021V28.9727ZM20.4175 28.9727L20.4175 28.4727C19.3076 28.4727 18.3999 27.5653 18.3999 26.4521H17.8999H17.3999C17.3999 28.1167 18.7544 29.4727 20.4175 29.4727L20.4175 28.9727ZM17.8999 26.4521L18.3999 26.4522C18.4 25.3393 19.3075 24.4326 20.4175 24.4326L20.4175 23.9326L20.4175 23.4326C18.7547 23.4326 17.4001 24.7875 17.3999 26.4521L17.8999 26.4521ZM20.4175 23.9326V24.4326H20.6919V23.9326V23.4326H20.4175V23.9326ZM20.6919 23.9326H21.1919V23.6201H20.6919H20.1919V23.9326H20.6919ZM20.6919 23.6201H21.1919C21.1919 19.6806 24.4063 16.4717 28.355 16.4717V15.9717V15.4717C23.8559 15.4717 20.1919 19.1264 20.1919 23.6201H20.6919ZM28.355 15.9717V16.4717H28.7866V15.9717V15.4717H28.355V15.9717ZM28.3521 17.0146L28.352 16.5146C24.428 16.5147 21.2349 19.7017 21.2349 23.6201H21.7349H22.2349C22.2349 20.2556 24.9787 17.5147 28.3521 17.5146L28.3521 17.0146ZM21.7349 23.6201H21.2349V26.9492H21.7349H22.2349V23.6201H21.7349ZM21.7349 26.9492L21.2349 26.9493C21.2349 27.452 21.2972 27.9421 21.4177 28.4423L21.9038 28.3252L22.3899 28.2081C22.2863 27.7783 22.2349 27.3669 22.2349 26.9492L21.7349 26.9492ZM21.9038 28.3252L21.4174 28.441C22.0967 31.2929 24.6311 33.2832 27.5718 33.2832L27.5718 32.7832L27.5718 32.2832C25.0906 32.2832 22.9614 30.6073 22.3902 28.2093L21.9038 28.3252ZM27.5718 32.7832V33.2832H29.5552V32.7832V32.2832H27.5718V32.7832ZM29.5552 32.7832L29.5552 33.2832C33.0478 33.283 35.8889 30.4418 35.8892 26.9493L35.3892 26.9492L34.8892 26.9492C34.8889 29.8895 32.4955 32.283 29.5551 32.2832L29.5552 32.7832ZM35.3892 26.9492V27.4492H35.394V26.9492V26.4492H35.3892V26.9492ZM35.394 26.9492H35.894V23.6172H35.394H34.894V26.9492H35.394ZM35.394 23.6172L35.894 23.6172C35.8939 20.0942 33.3122 17.1881 29.9497 16.6288L29.8677 17.1221L29.7856 17.6153C32.6798 18.0966 34.8939 20.5973 34.894 23.6172L35.394 23.6172ZM29.8677 17.1221L29.4023 17.305L29.7363 18.1546L30.2017 17.9717L30.667 17.7888L30.333 16.9391L29.8677 17.1221ZM30.2017 17.9717L29.7367 18.1555C30.0166 18.8636 30.0004 19.6306 29.6906 20.3232L30.147 20.5273L30.6034 20.7315C31.0237 19.792 31.0451 18.7452 30.6666 17.7879L30.2017 17.9717ZM30.147 20.5273L29.6906 20.3232C29.381 21.0152 28.818 21.5383 28.1038 21.8001L28.2759 22.2695L28.4479 22.739C29.4137 22.3851 30.1828 21.6717 30.6034 20.7315L30.147 20.5273ZM28.2759 22.2695L28.0866 21.8067C28.0056 21.8399 27.8779 21.8672 27.6909 21.8672V22.3672V22.8672C27.9669 22.8672 28.2312 22.828 28.4652 22.7323L28.2759 22.2695ZM27.6909 22.3672L27.691 21.8672C27.2301 21.8671 26.8233 21.6079 26.6259 21.1878L26.1733 21.4004L25.7208 21.613C26.0817 22.3811 26.8394 22.8671 27.6909 22.8672L27.6909 22.3672ZM26.1733 21.4004L26.6173 21.1704C26.5583 21.0565 26.5181 20.8971 26.5181 20.6963H26.0181H25.5181C25.5181 21.0251 25.5832 21.3482 25.7294 21.6303L26.1733 21.4004ZM26.0181 20.6963L26.5181 20.6964C26.5182 20.0905 26.9701 19.5892 27.5699 19.5255L27.5171 19.0283L27.4643 18.5311C26.3556 18.6488 25.5183 19.5794 25.5181 20.6962L26.0181 20.6963ZM27.5171 19.0283L27.5727 19.5252L28.3149 19.4422L28.2593 18.9453L28.2037 18.4484L27.4615 18.5314L27.5171 19.0283ZM28.2593 18.9453L27.762 18.9977L27.8714 20.0358L28.3687 19.9834L28.8659 19.931L28.7565 18.8929L28.2593 18.9453ZM28.3687 19.9834L28.3164 19.4861L27.5723 19.5643L27.6245 20.0615L27.6767 20.5588L28.4209 20.4807L28.3687 19.9834ZM27.6245 20.0615L27.5703 19.5645C26.9014 19.6374 26.5594 20.1982 26.5591 20.6911L27.0591 20.6914L27.5591 20.6917C27.5591 20.6588 27.5715 20.6239 27.5907 20.6002C27.5993 20.5896 27.609 20.5814 27.6203 20.5751C27.6313 20.5691 27.6494 20.5618 27.6787 20.5586L27.6245 20.0615ZM27.0591 20.6914H26.5591C26.5591 20.8422 26.5832 21.009 26.6617 21.166L27.1089 20.9424L27.5561 20.7188C27.5622 20.731 27.5629 20.737 27.562 20.7325C27.561 20.7278 27.5591 20.7148 27.5591 20.6914H27.0591ZM27.1089 20.9424L26.6573 21.157C26.8504 21.5632 27.2328 21.8191 27.6858 21.8193L27.686 21.3193L27.6863 20.8193C27.6537 20.8193 27.6333 20.8112 27.6189 20.8019C27.6041 20.7923 27.5814 20.7719 27.5605 20.7277L27.1089 20.9424ZM27.686 21.3193V21.8193C27.8004 21.8193 27.9412 21.809 28.0683 21.7623L27.896 21.293L27.7237 20.8236C27.7369 20.8187 27.7456 20.8167 27.7481 20.8162C27.7508 20.8155 27.7501 20.8158 27.7453 20.8164C27.7353 20.8177 27.7159 20.8193 27.686 20.8193V21.3193ZM27.896 21.293L28.0672 21.7628C28.7818 21.5024 29.3393 20.9851 29.6436 20.3034L29.187 20.0996L28.7304 19.8958C28.5383 20.3262 28.1891 20.654 27.7248 20.8232L27.896 21.293ZM29.187 20.0996L29.6436 20.3034C29.9469 19.6238 29.9615 18.8638 29.6882 18.1718L29.2231 18.3555L28.7581 18.5391C28.9334 18.9829 28.9233 19.4635 28.7304 19.8959L29.187 20.0996ZM29.2231 18.3555L29.6884 18.1725L29.1611 16.8316L28.6958 17.0146L28.2305 17.1977L28.7578 18.5385L29.2231 18.3555ZM28.6958 17.0146V16.5146H28.3521V17.0146V17.5146H28.6958V17.0146ZM27.3306 26.5381H26.8306C26.8306 27.4037 27.5344 28.1074 28.3999 28.1074L28.3999 27.6074L28.3999 27.1074C28.0866 27.1074 27.8306 26.8513 27.8306 26.5381H27.3306ZM28.3999 27.6074V28.1074C29.2662 28.1074 29.9671 27.4038 29.9741 26.5421L29.4741 26.5381L28.9741 26.534C28.9716 26.8512 28.7125 27.1074 28.3999 27.1074V27.6074ZM29.4741 26.5381V27.0381H30.5171V26.5381V26.0381H29.4741V26.5381ZM30.5171 26.5381H30.0171C30.0171 27.4286 29.2935 28.1521 28.4027 28.1523L28.4028 28.6523L28.4029 29.1523C29.8456 29.152 31.0171 27.9811 31.0171 26.5381H30.5171ZM28.4028 28.6523V28.1523C27.5121 28.1523 26.7876 27.4265 26.7876 26.5381H26.2876H25.7876C25.7876 27.9787 26.9597 29.1523 28.4028 29.1523V28.6523ZM26.2876 26.5381V27.0381H27.3306V26.5381V26.0381H26.2876V26.5381ZM20.4175 24.9775L20.4175 24.4775C19.3157 24.4775 18.443 25.3505 18.4429 26.4521L18.9429 26.4521L19.4429 26.4522C19.443 25.9027 19.8681 25.4775 20.4175 25.4775L20.4175 24.9775ZM18.9429 26.4521H18.4429C18.4429 27.5425 19.3305 28.4268 20.4175 28.4268L20.4175 27.9268L20.4175 27.4268C19.8817 27.4268 19.4429 26.9892 19.4429 26.4521H18.9429ZM20.4175 27.9268V28.4268H20.771V27.9268V27.4268H20.4175V27.9268ZM20.771 27.9268L21.2657 27.854C21.2203 27.5455 21.1919 27.2467 21.1919 26.9492L20.6919 26.9492L20.1919 26.9493C20.1919 27.3098 20.2263 27.6595 20.2763 27.9995L20.771 27.9268ZM20.6919 26.9492H21.1919V24.9775H20.6919H20.1919V26.9492H20.6919ZM20.6919 24.9775V24.4775H20.4175V24.9775V25.4775H20.6919V24.9775ZM36.4321 26.9492L35.9321 26.9491C35.9321 27.239 35.887 27.5161 35.8394 27.8517L36.3345 27.9219L36.8295 27.9921C36.8725 27.6887 36.9321 27.327 36.9321 26.9493L36.4321 26.9492ZM36.3345 27.9219V28.4219H36.3823V27.9219V27.4219H36.3345V27.9219ZM36.3823 27.9219L36.3824 28.4219C37.4717 28.4218 38.3582 27.5373 38.355 26.4458L37.855 26.4473L37.355 26.4487C37.3566 26.9846 36.9204 27.4218 36.3823 27.4219L36.3823 27.9219ZM37.855 26.4473L38.355 26.4472C38.3547 25.3769 37.4997 24.5229 36.4503 24.4847L36.4321 24.9844L36.414 25.484C36.9393 25.5031 37.3549 25.9287 37.355 26.4474L37.855 26.4473ZM36.4321 24.9844H35.9321V26.9492H36.4321H36.9321V24.9844H36.4321ZM25.3237 24.2334V24.7334C25.4158 24.7334 25.4897 24.8078 25.4897 24.8988L25.9897 24.8984L26.4897 24.8981C26.4893 24.2541 25.9668 23.7334 25.3237 23.7334V24.2334ZM25.9897 24.8984H25.4897C25.4897 24.99 25.4153 25.0645 25.3237 25.0645V25.5645V26.0645C25.9676 26.0645 26.4897 25.5423 26.4897 24.8984H25.9897ZM25.3237 25.5645L25.3239 25.0645C25.2321 25.0644 25.1577 24.9898 25.1577 24.8984H24.6577H24.1577C24.1577 25.5424 24.6801 26.0643 25.3236 26.0645L25.3237 25.5645ZM24.6577 24.8984L25.1577 24.8988C25.1578 24.808 25.2316 24.7334 25.3239 24.7334L25.3237 24.2334L25.3236 23.7334C24.6809 23.7336 24.1581 24.254 24.1577 24.8981L24.6577 24.8984ZM31.4731 24.2334V24.7334C31.5652 24.7334 31.6391 24.8078 31.6392 24.8988L32.1392 24.8984L32.6392 24.8981C32.6388 24.2541 32.1162 23.7334 31.4731 23.7334V24.2334ZM32.1392 24.8984H31.6392C31.6392 24.99 31.5647 25.0645 31.4731 25.0645V25.5645V26.0645C32.117 26.0645 32.6392 25.5423 32.6392 24.8984H32.1392ZM31.4731 25.5645L31.4735 25.0645C31.3825 25.0644 31.3081 24.9905 31.3081 24.8984H30.8081H30.3081C30.3081 25.5415 30.8288 26.064 31.4728 26.0645L31.4731 25.5645ZM30.8081 24.8984L31.3081 24.8988C31.3082 24.8073 31.382 24.7335 31.4735 24.7334L31.4731 24.2334L31.4728 23.7334C30.8296 23.7338 30.3085 24.2549 30.3081 24.8981L30.8081 24.8984Z" fill="white" mask="url(#path-3-outside-1_57_248)"/>
<g filter="url(#filter1_dd_57_248)">
<circle cx="28.5" cy="67" r="5" fill="white"/>
<circle cx="28.5" cy="67" r="4" stroke="#46BD05" stroke-width="2"/>
</g>
<defs>
<filter id="filter0_dd_57_248" x="0" y="0" width="57.0698" height="74" filterUnits="userSpaceOnUse" color-interpolation-filters="sRGB">
<feFlood flood-opacity="0" result="BackgroundImageFix"/>
<feColorMatrix in="SourceAlpha" type="matrix" values="0 0 0 0 0 0 0 0 0 0 0 0 0 0 0 0 0 0 127 0" result="hardAlpha"/>
<feOffset dy="2"/>
<feGaussianBlur stdDeviation="1"/>
<feComposite in2="hardAlpha" operator="out"/>
<feColorMatrix type="matrix" values="0 0 0 0 0 0 0 0 0 0 0 0 0 0 0 0 0 0 0.1 0"/>
<feBlend mode="normal" in2="BackgroundImageFix" result="effect1_dropShadow_57_248"/>
<feColorMatrix in="SourceAlpha" type="matrix" values="0 0 0 0 0 0 0 0 0 0 0 0 0 0 0 0 0 0 127 0" result="hardAlpha"/>
<feOffset dy="4"/>
<feGaussianBlur stdDeviation="4.5"/>
<feComposite in2="hardAlpha" operator="out"/>
<feColorMatrix type="matrix" values="0 0 0 0 0 0 0 0 0 0 0 0 0 0 0 0 0 0 0.15 0"/>
<feBlend mode="normal" in2="effect1_dropShadow_57_248" result="effect2_dropShadow_57_248"/>
<feBlend mode="normal" in="SourceGraphic" in2="effect2_dropShadow_57_248" result="shape"/>
</filter>
<filter id="filter1_dd_57_248" x="14.5" y="57" width="28" height="28" filterUnits="userSpaceOnUse" color-interpolation-filters="sRGB">
<feFlood flood-opacity="0" result="BackgroundImageFix"/>
<feColorMatrix in="SourceAlpha" type="matrix" values="0 0 0 0 0 0 0 0 0 0 0 0 0 0 0 0 0 0 127 0" result="hardAlpha"/>
<feOffset dy="4"/>
<feGaussianBlur stdDeviation="4.5"/>
<feComposite in2="hardAlpha" operator="out"/>
<feColorMatrix type="matrix" values="0 0 0 0 0 0 0 0 0 0 0 0 0 0 0 0 0 0 0.15 0"/>
<feBlend mode="normal" in2="BackgroundImageFix" result="effect1_dropShadow_57_248"/>
<feColorMatrix in="SourceAlpha" type="matrix" values="0 0 0 0 0 0 0 0 0 0 0 0 0 0 0 0 0 0 127 0" result="hardAlpha"/>
<feOffset dy="2"/>
<feGaussianBlur stdDeviation="1"/>
<feComposite in2="hardAlpha" operator="out"/>
<feColorMatrix type="matrix" values="0 0 0 0 0 0 0 0 0 0 0 0 0 0 0 0 0 0 0.1 0"/>
<feBlend mode="normal" in2="effect1_dropShadow_57_248" result="effect2_dropShadow_57_248"/>
<feBlend mode="normal" in="SourceGraphic" in2="effect2_dropShadow_57_248" result="shape"/>
</filter>
</defs>
</svg>
