<svg width="58" height="85" viewBox="0 0 58 85" fill="none" xmlns="http://www.w3.org/2000/svg">
<g filter="url(#filter0_dd_57_374)">
<path d="M28.5349 5C17.7349 5 9 13.764 9 24.6C9 39.3 28.5349 61 28.5349 61C28.5349 61 48.0698 39.3 48.0698 24.6C48.0698 13.764 39.3349 5 28.5349 5ZM28.5349 31.6C24.6837 31.6 21.5581 28.464 21.5581 24.6C21.5581 20.736 24.6837 17.6 28.5349 17.6C32.386 17.6 35.5116 20.736 35.5116 24.6C35.5116 28.464 32.386 31.6 28.5349 31.6Z" fill="white"/>
</g>
<rect x="11.5" y="8" width="33.8" height="33.8" rx="16.9" fill="#3A899B"/>
<path d="M31.6351 31.85L30.7851 34.275C30.7184 34.4584 30.6017 34.6084 30.4351 34.725C30.2684 34.8417 30.0851 34.9 29.8851 34.9C29.5517 34.9 29.2809 34.7625 29.0726 34.4875C28.8642 34.2125 28.8267 33.9084 28.9601 33.575L32.7601 23.525C32.8434 23.3417 32.9684 23.1917 33.1351 23.075C33.3017 22.9584 33.4851 22.9 33.6851 22.9H34.4351C34.6351 22.9 34.8184 22.9584 34.9851 23.075C35.1517 23.1917 35.2767 23.3417 35.3601 23.525L39.1601 33.6C39.2934 33.9167 39.2601 34.2125 39.0601 34.4875C38.8601 34.7625 38.5934 34.9 38.2601 34.9C38.0434 34.9 37.8559 34.8417 37.6976 34.725C37.5392 34.6084 37.4184 34.45 37.3351 34.25L36.4851 31.85H31.6351ZM25.6101 26.875L21.2601 31.2C21.0767 31.3834 20.8476 31.4792 20.5726 31.4875C20.2976 31.4959 20.0601 31.4 19.8601 31.2C19.6767 31.0167 19.5851 30.7834 19.5851 30.5C19.5851 30.2167 19.6767 29.9834 19.8601 29.8L24.2101 25.45C23.6267 24.8667 23.0976 24.2 22.6226 23.45C22.1476 22.7 21.7101 21.85 21.3101 20.9H23.4101C23.7434 21.55 24.0767 22.1167 24.4101 22.6C24.7434 23.0834 25.1434 23.5667 25.6101 24.05C26.1601 23.5 26.7309 22.7292 27.3226 21.7375C27.9142 20.7459 28.3601 19.8 28.6601 18.9H18.5601C18.2767 18.9 18.0392 18.8042 17.8476 18.6125C17.6559 18.4209 17.5601 18.1834 17.5601 17.9C17.5601 17.6167 17.6559 17.3792 17.8476 17.1875C18.0392 16.9959 18.2767 16.9 18.5601 16.9H24.5601V15.9C24.5601 15.6167 24.6559 15.3792 24.8476 15.1875C25.0392 14.9959 25.2767 14.9 25.5601 14.9C25.8434 14.9 26.0809 14.9959 26.2726 15.1875C26.4642 15.3792 26.5601 15.6167 26.5601 15.9V16.9H32.5601C32.8434 16.9 33.0809 16.9959 33.2726 17.1875C33.4642 17.3792 33.5601 17.6167 33.5601 17.9C33.5601 18.1834 33.4642 18.4209 33.2726 18.6125C33.0809 18.8042 32.8434 18.9 32.5601 18.9H30.6601C30.3101 20.1 29.7851 21.3334 29.0851 22.6C28.3851 23.8667 27.6934 24.8334 27.0101 25.5L29.4101 27.95L28.6601 30L25.6101 26.875ZM32.2601 30.1H35.8601L34.0601 25L32.2601 30.1Z" fill="white"/>
<g filter="url(#filter1_dd_57_374)">
<circle cx="28.5" cy="67" r="5" fill="white"/>
<circle cx="28.5" cy="67" r="4" stroke="#3A899B" stroke-width="2"/>
</g>
<defs>
<filter id="filter0_dd_57_374" x="0" y="0" width="57.0698" height="74" filterUnits="userSpaceOnUse" color-interpolation-filters="sRGB">
<feFlood flood-opacity="0" result="BackgroundImageFix"/>
<feColorMatrix in="SourceAlpha" type="matrix" values="0 0 0 0 0 0 0 0 0 0 0 0 0 0 0 0 0 0 127 0" result="hardAlpha"/>
<feOffset dy="2"/>
<feGaussianBlur stdDeviation="1"/>
<feComposite in2="hardAlpha" operator="out"/>
<feColorMatrix type="matrix" values="0 0 0 0 0 0 0 0 0 0 0 0 0 0 0 0 0 0 0.1 0"/>
<feBlend mode="normal" in2="BackgroundImageFix" result="effect1_dropShadow_57_374"/>
<feColorMatrix in="SourceAlpha" type="matrix" values="0 0 0 0 0 0 0 0 0 0 0 0 0 0 0 0 0 0 127 0" result="hardAlpha"/>
<feOffset dy="4"/>
<feGaussianBlur stdDeviation="4.5"/>
<feComposite in2="hardAlpha" operator="out"/>
<feColorMatrix type="matrix" values="0 0 0 0 0 0 0 0 0 0 0 0 0 0 0 0 0 0 0.15 0"/>
<feBlend mode="normal" in2="effect1_dropShadow_57_374" result="effect2_dropShadow_57_374"/>
<feBlend mode="normal" in="SourceGraphic" in2="effect2_dropShadow_57_374" result="shape"/>
</filter>
<filter id="filter1_dd_57_374" x="14.5" y="57" width="28" height="28" filterUnits="userSpaceOnUse" color-interpolation-filters="sRGB">
<feFlood flood-opacity="0" result="BackgroundImageFix"/>
<feColorMatrix in="SourceAlpha" type="matrix" values="0 0 0 0 0 0 0 0 0 0 0 0 0 0 0 0 0 0 127 0" result="hardAlpha"/>
<feOffset dy="4"/>
<feGaussianBlur stdDeviation="4.5"/>
<feComposite in2="hardAlpha" operator="out"/>
<feColorMatrix type="matrix" values="0 0 0 0 0 0 0 0 0 0 0 0 0 0 0 0 0 0 0.15 0"/>
<feBlend mode="normal" in2="BackgroundImageFix" result="effect1_dropShadow_57_374"/>
<feColorMatrix in="SourceAlpha" type="matrix" values="0 0 0 0 0 0 0 0 0 0 0 0 0 0 0 0 0 0 127 0" result="hardAlpha"/>
<feOffset dy="2"/>
<feGaussianBlur stdDeviation="1"/>
<feComposite in2="hardAlpha" operator="out"/>
<feColorMatrix type="matrix" values="0 0 0 0 0 0 0 0 0 0 0 0 0 0 0 0 0 0 0.1 0"/>
<feBlend mode="normal" in2="effect1_dropShadow_57_374" result="effect2_dropShadow_57_374"/>
<feBlend mode="normal" in="SourceGraphic" in2="effect2_dropShadow_57_374" result="shape"/>
</filter>
</defs>
</svg>
