<svg width="48" height="72" viewBox="0 0 48 72" fill="none" xmlns="http://www.w3.org/2000/svg">
<g filter="url(#filter0_dd_43_32)">
<path d="M24 5C15.7071 5 9 11.7295 9 20.05C9 31.3375 24 48 24 48C24 48 39 31.3375 39 20.05C39 11.7295 32.2929 5 24 5ZM24 25.425C21.0429 25.425 18.6429 23.017 18.6429 20.05C18.6429 17.083 21.0429 14.675 24 14.675C26.9571 14.675 29.3571 17.083 29.3571 20.05C29.3571 23.017 26.9571 25.425 24 25.425Z" fill="white"/>
</g>
<rect x="11" y="7" width="26" height="26" rx="13" fill="#B50CFE"/>
<path d="M22.917 13.2793C23.5507 12.774 24.4493 12.774 25.083 13.2793L30.4443 17.5537C30.8583 17.8839 31.0995 18.3859 31.0996 18.917V25.3574C31.0996 26.3194 30.3216 27.0996 29.3613 27.0996H18.6387C17.6784 27.0996 16.9004 26.3194 16.9004 25.3574V18.917C16.9005 18.3859 17.1417 17.8839 17.5557 17.5537L22.917 13.2793ZM24.4004 14.1367C24.1658 13.9494 23.8342 13.9494 23.5996 14.1367L18.2373 18.4111C18.0833 18.5339 17.9933 18.7199 17.9932 18.917V25.3574C17.9932 25.7144 18.2831 26.0039 18.6387 26.0039H29.3613C29.7169 26.0039 30.0068 25.7144 30.0068 25.3574V18.917C30.0067 18.7199 29.9167 18.5339 29.7627 18.4111L24.4004 14.1367ZM22.6592 18.8379C23.1213 18.8379 23.5396 19.0212 23.8506 19.3154C24.1616 19.0209 24.5805 18.8379 25.043 18.8379H26.5146C26.9017 18.8379 27.2394 19.1029 27.334 19.4785L28.0576 22.3604C28.168 22.8002 27.8362 23.2275 27.3828 23.2275H25.3438C25.0647 23.2275 24.7928 23.3147 24.5654 23.4766C24.3846 23.6057 24.1298 23.6701 23.8828 23.6738C23.636 23.6776 23.3785 23.6209 23.1934 23.4902L23.1914 23.4893C22.9711 23.3278 22.7226 23.2275 22.457 23.2275H20.6104C20.1665 23.2275 19.836 22.8165 19.9307 22.3818L20.5576 19.5049C20.642 19.1156 20.9857 18.8379 21.3828 18.8379H22.6592ZM25.043 19.9346C24.6875 19.9346 24.3977 20.2233 24.3975 20.5801V22.3232C24.6951 22.1975 25.0168 22.1318 25.3438 22.1318H26.873L26.3203 19.9336L25.043 19.9346ZM21.1045 22.1318H22.457C22.7498 22.1318 23.037 22.1923 23.3047 22.3018V20.5811C23.3047 20.224 23.0148 19.9346 22.6592 19.9346H21.582L21.1045 22.1318Z" fill="white" stroke="white" stroke-width="0.2"/>
<g filter="url(#filter1_dd_43_32)">
<circle cx="24" cy="54" r="5" fill="white"/>
<circle cx="24" cy="54" r="4" stroke="#B50CFE" stroke-width="2"/>
</g>
<defs>
<filter id="filter0_dd_43_32" x="0" y="0" width="48" height="61" filterUnits="userSpaceOnUse" color-interpolation-filters="sRGB">
<feFlood flood-opacity="0" result="BackgroundImageFix"/>
<feColorMatrix in="SourceAlpha" type="matrix" values="0 0 0 0 0 0 0 0 0 0 0 0 0 0 0 0 0 0 127 0" result="hardAlpha"/>
<feOffset dy="2"/>
<feGaussianBlur stdDeviation="1"/>
<feComposite in2="hardAlpha" operator="out"/>
<feColorMatrix type="matrix" values="0 0 0 0 0 0 0 0 0 0 0 0 0 0 0 0 0 0 0.1 0"/>
<feBlend mode="normal" in2="BackgroundImageFix" result="effect1_dropShadow_43_32"/>
<feColorMatrix in="SourceAlpha" type="matrix" values="0 0 0 0 0 0 0 0 0 0 0 0 0 0 0 0 0 0 127 0" result="hardAlpha"/>
<feOffset dy="4"/>
<feGaussianBlur stdDeviation="4.5"/>
<feComposite in2="hardAlpha" operator="out"/>
<feColorMatrix type="matrix" values="0 0 0 0 0 0 0 0 0 0 0 0 0 0 0 0 0 0 0.15 0"/>
<feBlend mode="normal" in2="effect1_dropShadow_43_32" result="effect2_dropShadow_43_32"/>
<feBlend mode="normal" in="SourceGraphic" in2="effect2_dropShadow_43_32" result="shape"/>
</filter>
<filter id="filter1_dd_43_32" x="10" y="44" width="28" height="28" filterUnits="userSpaceOnUse" color-interpolation-filters="sRGB">
<feFlood flood-opacity="0" result="BackgroundImageFix"/>
<feColorMatrix in="SourceAlpha" type="matrix" values="0 0 0 0 0 0 0 0 0 0 0 0 0 0 0 0 0 0 127 0" result="hardAlpha"/>
<feOffset dy="4"/>
<feGaussianBlur stdDeviation="4.5"/>
<feComposite in2="hardAlpha" operator="out"/>
<feColorMatrix type="matrix" values="0 0 0 0 0 0 0 0 0 0 0 0 0 0 0 0 0 0 0.15 0"/>
<feBlend mode="normal" in2="BackgroundImageFix" result="effect1_dropShadow_43_32"/>
<feColorMatrix in="SourceAlpha" type="matrix" values="0 0 0 0 0 0 0 0 0 0 0 0 0 0 0 0 0 0 127 0" result="hardAlpha"/>
<feOffset dy="2"/>
<feGaussianBlur stdDeviation="1"/>
<feComposite in2="hardAlpha" operator="out"/>
<feColorMatrix type="matrix" values="0 0 0 0 0 0 0 0 0 0 0 0 0 0 0 0 0 0 0.1 0"/>
<feBlend mode="normal" in2="effect1_dropShadow_43_32" result="effect2_dropShadow_43_32"/>
<feBlend mode="normal" in="SourceGraphic" in2="effect2_dropShadow_43_32" result="shape"/>
</filter>
</defs>
</svg>
