<svg width="58" height="85" viewBox="0 0 58 85" fill="none" xmlns="http://www.w3.org/2000/svg">
<g filter="url(#filter0_dd_57_57)">
<path d="M28.5349 5C17.7349 5 9 13.764 9 24.6C9 39.3 28.5349 61 28.5349 61C28.5349 61 48.0698 39.3 48.0698 24.6C48.0698 13.764 39.3349 5 28.5349 5ZM28.5349 31.6C24.6837 31.6 21.5581 28.464 21.5581 24.6C21.5581 20.736 24.6837 17.6 28.5349 17.6C32.386 17.6 35.5116 20.736 35.5116 24.6C35.5116 28.464 32.386 31.6 28.5349 31.6Z" fill="white"/>
</g>
<rect x="11.5" y="8" width="33.8" height="33.8" rx="16.9" fill="#871665" fill-opacity="0.99"/>
<path d="M30.4907 14.6509C32.1568 14.6144 33.7394 15.3965 35.0913 16.8853L35.1382 16.9341L35.1421 16.937L35.144 16.9399C37.0167 18.8915 38.0266 20.6652 38.1392 22.3394L38.1499 22.6724C38.146 23.8237 37.725 24.8208 37.103 25.7388C36.4845 26.6516 35.6557 27.5008 34.8247 28.354C34.7357 28.4468 34.6465 28.5401 34.5571 28.6323C34.4675 28.7248 34.3777 28.8168 34.2896 28.9087C31.5571 31.7565 28.5545 32.6122 27.7681 32.7964L26.6421 33.9683L25.894 34.7456L25.895 34.7466C25.6402 35.0165 25.3002 35.1499 24.9614 35.1499C24.6228 35.1498 24.2835 35.0164 24.0288 34.7466V34.7456L19.0308 29.5405C18.5232 29.0114 18.5231 28.1565 19.0308 27.6274L20.8247 25.7534L20.4771 22.6958H20.4761C20.3546 21.6043 20.7118 20.5278 21.4595 19.7485C22.5018 18.6625 24.0531 18.4228 25.3247 19.0239C25.3251 18.9775 25.327 18.931 25.3296 18.8843V18.8794C25.3366 18.7886 25.344 18.6867 25.3599 18.5835C25.523 17.4547 26.2106 16.5205 27.1011 15.8511C27.9918 15.1815 29.1039 14.7622 30.1558 14.6694L30.4907 14.6509ZM23.2778 30.313C23.2381 30.2718 23.179 30.2717 23.1392 30.313C23.0938 30.3603 23.0938 30.4404 23.1392 30.4878L25.7095 33.1675L25.8628 33.0073L23.2778 30.313ZM30.2632 15.9067H30.2622C29.4596 15.9767 28.5818 16.3013 27.8784 16.812C27.1741 17.3234 26.6699 18.0015 26.5601 18.7671V18.7681C26.5504 18.8351 26.5436 18.8979 26.5405 18.9595V19.1841C26.5688 19.7061 26.7993 20.2315 27.2017 20.6509L28.145 21.6333C28.5914 22.0986 28.8354 22.7156 28.8354 23.3696C28.8354 23.4901 28.8228 23.6094 28.8062 23.7261C28.9525 23.9406 29.2275 24.3089 29.604 24.6538C30.0316 25.0455 30.5701 25.3889 31.1812 25.4683C31.9922 25.5721 32.865 25.1924 33.7837 24.2349C34.0203 23.9885 34.4074 23.9886 34.644 24.2349C34.8751 24.4757 34.875 24.8612 34.644 25.1021C33.6336 26.1552 32.5585 26.7202 31.4497 26.7202C31.3103 26.7202 31.1685 26.712 31.0249 26.6919V26.6929C29.7528 26.528 28.7948 25.6528 28.2368 24.9917C28.2057 25.0284 28.176 25.0667 28.1421 25.1021L28.1411 25.103C27.2134 26.0657 25.7025 26.0658 24.7778 25.1021L23.2212 23.48C22.9903 23.2391 22.9903 22.8536 23.2212 22.6128C23.4579 22.3661 23.8458 22.3661 24.0825 22.6128L25.6382 24.2349L25.7271 24.3179C26.1843 24.704 26.8553 24.6753 27.2778 24.2349C27.4983 24.0049 27.6226 23.6973 27.6226 23.3657C27.6224 23.0343 27.4982 22.7274 27.2778 22.4976L25.4731 20.6157C24.6039 19.7097 23.1894 19.709 22.3198 20.6147C21.8332 21.1253 21.5989 21.828 21.6792 22.5503L22.0376 25.6919L27.6509 31.5405C28.5176 31.3069 31.1097 30.448 33.4253 28.0347C33.5162 27.9399 33.6079 27.8462 33.6978 27.7534C33.7878 27.6605 33.8762 27.5679 33.9644 27.4761L34.0913 27.3442L34.0981 27.3472C34.8348 26.5892 35.5285 25.8653 36.0493 25.1157C36.5976 24.3267 36.9404 23.5311 36.9438 22.6675L36.9341 22.4077C36.8382 21.1003 35.9974 19.5933 34.2837 17.8071L34.2192 17.7407L34.2144 17.7358C33.0001 16.3988 31.6293 15.7861 30.2632 15.9067Z" fill="white" stroke="white" stroke-width="0.5"/>
<g filter="url(#filter1_dd_57_57)">
<circle cx="28.5" cy="67" r="5" fill="white"/>
<circle cx="28.5" cy="67" r="4" stroke="#881866" stroke-width="2"/>
</g>
<defs>
<filter id="filter0_dd_57_57" x="0" y="0" width="57.0698" height="74" filterUnits="userSpaceOnUse" color-interpolation-filters="sRGB">
<feFlood flood-opacity="0" result="BackgroundImageFix"/>
<feColorMatrix in="SourceAlpha" type="matrix" values="0 0 0 0 0 0 0 0 0 0 0 0 0 0 0 0 0 0 127 0" result="hardAlpha"/>
<feOffset dy="2"/>
<feGaussianBlur stdDeviation="1"/>
<feComposite in2="hardAlpha" operator="out"/>
<feColorMatrix type="matrix" values="0 0 0 0 0 0 0 0 0 0 0 0 0 0 0 0 0 0 0.1 0"/>
<feBlend mode="normal" in2="BackgroundImageFix" result="effect1_dropShadow_57_57"/>
<feColorMatrix in="SourceAlpha" type="matrix" values="0 0 0 0 0 0 0 0 0 0 0 0 0 0 0 0 0 0 127 0" result="hardAlpha"/>
<feOffset dy="4"/>
<feGaussianBlur stdDeviation="4.5"/>
<feComposite in2="hardAlpha" operator="out"/>
<feColorMatrix type="matrix" values="0 0 0 0 0 0 0 0 0 0 0 0 0 0 0 0 0 0 0.15 0"/>
<feBlend mode="normal" in2="effect1_dropShadow_57_57" result="effect2_dropShadow_57_57"/>
<feBlend mode="normal" in="SourceGraphic" in2="effect2_dropShadow_57_57" result="shape"/>
</filter>
<filter id="filter1_dd_57_57" x="14.5" y="57" width="28" height="28" filterUnits="userSpaceOnUse" color-interpolation-filters="sRGB">
<feFlood flood-opacity="0" result="BackgroundImageFix"/>
<feColorMatrix in="SourceAlpha" type="matrix" values="0 0 0 0 0 0 0 0 0 0 0 0 0 0 0 0 0 0 127 0" result="hardAlpha"/>
<feOffset dy="4"/>
<feGaussianBlur stdDeviation="4.5"/>
<feComposite in2="hardAlpha" operator="out"/>
<feColorMatrix type="matrix" values="0 0 0 0 0 0 0 0 0 0 0 0 0 0 0 0 0 0 0.15 0"/>
<feBlend mode="normal" in2="BackgroundImageFix" result="effect1_dropShadow_57_57"/>
<feColorMatrix in="SourceAlpha" type="matrix" values="0 0 0 0 0 0 0 0 0 0 0 0 0 0 0 0 0 0 127 0" result="hardAlpha"/>
<feOffset dy="2"/>
<feGaussianBlur stdDeviation="1"/>
<feComposite in2="hardAlpha" operator="out"/>
<feColorMatrix type="matrix" values="0 0 0 0 0 0 0 0 0 0 0 0 0 0 0 0 0 0 0.1 0"/>
<feBlend mode="normal" in2="effect1_dropShadow_57_57" result="effect2_dropShadow_57_57"/>
<feBlend mode="normal" in="SourceGraphic" in2="effect2_dropShadow_57_57" result="shape"/>
</filter>
</defs>
</svg>
