<svg width="58" height="85" viewBox="0 0 58 85" fill="none" xmlns="http://www.w3.org/2000/svg">
<g filter="url(#filter0_dd_57_383)">
<path d="M28.5349 5C17.7349 5 9 13.764 9 24.6C9 39.3 28.5349 61 28.5349 61C28.5349 61 48.0698 39.3 48.0698 24.6C48.0698 13.764 39.3349 5 28.5349 5ZM28.5349 31.6C24.6837 31.6 21.5581 28.464 21.5581 24.6C21.5581 20.736 24.6837 17.6 28.5349 17.6C32.386 17.6 35.5116 20.736 35.5116 24.6C35.5116 28.464 32.386 31.6 28.5349 31.6Z" fill="white"/>
</g>
<rect x="11.5" y="8" width="33.8" height="33.8" rx="16.9" fill="#544995"/>
<path d="M28.5 23.0625C28.7416 22.8209 28.8625 22.525 28.8625 22.175C28.8625 21.825 28.7416 21.5292 28.5 21.2875C28.2583 21.0459 27.9625 20.925 27.6125 20.925C27.2625 20.925 26.9666 21.0459 26.725 21.2875C26.4833 21.5292 26.3625 21.825 26.3625 22.175C26.3625 22.525 26.4833 22.8209 26.725 23.0625C26.9666 23.3042 27.2625 23.425 27.6125 23.425C27.9625 23.425 28.2583 23.3042 28.5 23.0625ZM36.9375 34.9C36.2375 34.9 35.2958 34.6084 34.1125 34.025C32.9291 33.4417 31.6625 32.65 30.3125 31.65C29.9958 31.7334 29.675 31.7959 29.35 31.8375C29.025 31.8792 28.6958 31.9 28.3625 31.9C26.4125 31.9 24.7625 31.225 23.4125 29.875C22.0625 28.525 21.3875 26.875 21.3875 24.925C21.3875 24.5917 21.4125 24.2584 21.4625 23.925C21.5125 23.5917 21.5791 23.2667 21.6625 22.95C20.6791 21.6 19.8916 20.3375 19.3 19.1625C18.7083 17.9875 18.4125 17.05 18.4125 16.35C18.4125 15.9 18.5375 15.5459 18.7875 15.2875C19.0375 15.0292 19.3791 14.9 19.8125 14.9C20.1958 14.9 20.6666 15.0084 21.225 15.225C21.7833 15.4417 22.5375 15.8167 23.4875 16.35C23.7208 16.4834 23.875 16.6875 23.95 16.9625C24.025 17.2375 23.9958 17.4917 23.8625 17.725C23.7291 17.9584 23.5291 18.1125 23.2625 18.1875C22.9958 18.2625 22.7458 18.2334 22.5125 18.1C22.1958 17.9167 21.8875 17.7584 21.5875 17.625C21.2875 17.4917 20.9708 17.35 20.6375 17.2C20.9375 17.8334 21.2583 18.45 21.6 19.05C21.9416 19.65 22.3041 20.2417 22.6875 20.825C23.3208 19.925 24.1291 19.2167 25.1125 18.7C26.0958 18.1834 27.1791 17.925 28.3625 17.925C30.3125 17.925 31.9666 18.6042 33.325 19.9625C34.6833 21.3209 35.3625 22.975 35.3625 24.925C35.3625 26.1084 35.1 27.1917 34.575 28.175C34.05 29.1584 33.3375 29.9667 32.4375 30.6C33.0208 30.9834 33.6166 31.35 34.225 31.7C34.8333 32.05 35.4541 32.3667 36.0875 32.65C35.9541 32.3334 35.8166 32.025 35.675 31.725C35.5333 31.425 35.3708 31.1167 35.1875 30.8C35.0541 30.5667 35.025 30.3125 35.1 30.0375C35.175 29.7625 35.3291 29.5584 35.5625 29.425C35.7958 29.2917 36.05 29.2625 36.325 29.3375C36.6 29.4125 36.8041 29.5667 36.9375 29.8C37.5041 30.8 37.8875 31.5625 38.0875 32.0875C38.2875 32.6125 38.3875 33.0667 38.3875 33.45C38.3875 33.9334 38.2541 34.2959 37.9875 34.5375C37.7208 34.7792 37.3708 34.9 36.9375 34.9ZM30.825 27.6375C31.0166 27.4459 31.1125 27.2084 31.1125 26.925C31.1125 26.6417 31.0166 26.4042 30.825 26.2125C30.6333 26.0209 30.3958 25.925 30.1125 25.925C29.8291 25.925 29.5916 26.0209 29.4 26.2125C29.2083 26.4042 29.1125 26.6417 29.1125 26.925C29.1125 27.2084 29.2083 27.4459 29.4 27.6375C29.5916 27.8292 29.8291 27.925 30.1125 27.925C30.3958 27.925 30.6333 27.8292 30.825 27.6375ZM31.9 24.2125C32.0416 24.0709 32.1125 23.8917 32.1125 23.675C32.1125 23.4584 32.0416 23.2792 31.9 23.1375C31.7583 22.9959 31.5791 22.925 31.3625 22.925C31.1458 22.925 30.9666 22.9959 30.825 23.1375C30.6833 23.2792 30.6125 23.4584 30.6125 23.675C30.6125 23.8917 30.6833 24.0709 30.825 24.2125C30.9666 24.3542 31.1458 24.425 31.3625 24.425C31.5791 24.425 31.7583 24.3542 31.9 24.2125ZM28.0875 29.875C27.2375 29.1417 26.4208 28.3834 25.6375 27.6C24.8541 26.8167 24.1041 26 23.3875 25.15C23.4208 25.7834 23.5625 26.3792 23.8125 26.9375C24.0625 27.4959 24.4041 27.9917 24.8375 28.425C25.2708 28.8584 25.7625 29.2 26.3125 29.45C26.8625 29.7 27.4541 29.8417 28.0875 29.875ZM30.6625 29.35C31.4625 28.9334 32.1125 28.3292 32.6125 27.5375C33.1125 26.7459 33.3625 25.8667 33.3625 24.9C33.3625 23.5167 32.875 22.3417 31.9 21.375C30.925 20.4084 29.7458 19.925 28.3625 19.925C27.3958 19.925 26.5208 20.175 25.7375 20.675C24.9541 21.175 24.3541 21.825 23.9375 22.625C24.8875 23.8917 25.9291 25.0917 27.0625 26.225C28.1958 27.3584 29.3958 28.4 30.6625 29.35Z" fill="white"/>
<g filter="url(#filter1_dd_57_383)">
<circle cx="28.5" cy="67" r="5" fill="white"/>
<circle cx="28.5" cy="67" r="4" stroke="#544995" stroke-width="2"/>
</g>
<defs>
<filter id="filter0_dd_57_383" x="0" y="0" width="57.0698" height="74" filterUnits="userSpaceOnUse" color-interpolation-filters="sRGB">
<feFlood flood-opacity="0" result="BackgroundImageFix"/>
<feColorMatrix in="SourceAlpha" type="matrix" values="0 0 0 0 0 0 0 0 0 0 0 0 0 0 0 0 0 0 127 0" result="hardAlpha"/>
<feOffset dy="2"/>
<feGaussianBlur stdDeviation="1"/>
<feComposite in2="hardAlpha" operator="out"/>
<feColorMatrix type="matrix" values="0 0 0 0 0 0 0 0 0 0 0 0 0 0 0 0 0 0 0.1 0"/>
<feBlend mode="normal" in2="BackgroundImageFix" result="effect1_dropShadow_57_383"/>
<feColorMatrix in="SourceAlpha" type="matrix" values="0 0 0 0 0 0 0 0 0 0 0 0 0 0 0 0 0 0 127 0" result="hardAlpha"/>
<feOffset dy="4"/>
<feGaussianBlur stdDeviation="4.5"/>
<feComposite in2="hardAlpha" operator="out"/>
<feColorMatrix type="matrix" values="0 0 0 0 0 0 0 0 0 0 0 0 0 0 0 0 0 0 0.15 0"/>
<feBlend mode="normal" in2="effect1_dropShadow_57_383" result="effect2_dropShadow_57_383"/>
<feBlend mode="normal" in="SourceGraphic" in2="effect2_dropShadow_57_383" result="shape"/>
</filter>
<filter id="filter1_dd_57_383" x="14.5" y="57" width="28" height="28" filterUnits="userSpaceOnUse" color-interpolation-filters="sRGB">
<feFlood flood-opacity="0" result="BackgroundImageFix"/>
<feColorMatrix in="SourceAlpha" type="matrix" values="0 0 0 0 0 0 0 0 0 0 0 0 0 0 0 0 0 0 127 0" result="hardAlpha"/>
<feOffset dy="4"/>
<feGaussianBlur stdDeviation="4.5"/>
<feComposite in2="hardAlpha" operator="out"/>
<feColorMatrix type="matrix" values="0 0 0 0 0 0 0 0 0 0 0 0 0 0 0 0 0 0 0.15 0"/>
<feBlend mode="normal" in2="BackgroundImageFix" result="effect1_dropShadow_57_383"/>
<feColorMatrix in="SourceAlpha" type="matrix" values="0 0 0 0 0 0 0 0 0 0 0 0 0 0 0 0 0 0 127 0" result="hardAlpha"/>
<feOffset dy="2"/>
<feGaussianBlur stdDeviation="1"/>
<feComposite in2="hardAlpha" operator="out"/>
<feColorMatrix type="matrix" values="0 0 0 0 0 0 0 0 0 0 0 0 0 0 0 0 0 0 0.1 0"/>
<feBlend mode="normal" in2="effect1_dropShadow_57_383" result="effect2_dropShadow_57_383"/>
<feBlend mode="normal" in="SourceGraphic" in2="effect2_dropShadow_57_383" result="shape"/>
</filter>
</defs>
</svg>
