<svg width="48" height="72" viewBox="0 0 48 72" fill="none" xmlns="http://www.w3.org/2000/svg">
<g filter="url(#filter0_dd_43_17)">
<path d="M24 5C15.7071 5 9 11.7295 9 20.05C9 31.3375 24 48 24 48C24 48 39 31.3375 39 20.05C39 11.7295 32.2929 5 24 5ZM24 25.425C21.0429 25.425 18.6429 23.017 18.6429 20.05C18.6429 17.083 21.0429 14.675 24 14.675C26.9571 14.675 29.3571 17.083 29.3571 20.05C29.3571 23.017 26.9571 25.425 24 25.425Z" fill="white"/>
</g>
<rect x="11" y="7" width="26" height="26" rx="13" fill="#0077FF"/>
<mask id="path-3-outside-1_43_17" maskUnits="userSpaceOnUse" x="15.0002" y="12.5275" width="18" height="15" fill="black">
<rect fill="white" x="15.0002" y="12.5275" width="18" height="15"/>
<path d="M29.801 15.2667C30.2602 15.1832 30.7335 15.239 31.137 15.4894C31.6796 15.8233 31.9993 16.4082 31.9993 17.0343V22.9474C31.9993 24.0466 31.1649 24.9928 30.0657 25.0763C28.7716 25.1598 27.7 24.0747 27.8391 22.7667C27.9365 21.8068 28.7017 21.0416 29.6477 20.9161C30.1208 20.8605 30.5806 20.9582 30.9563 21.1808C31.0536 21.2362 31.1651 21.1805 31.1653 21.0695V18.6339L25.0422 19.8585V24.339C25.0422 25.4381 24.2077 26.3843 23.1086 26.4679C21.8146 26.5514 20.743 25.4662 20.8821 24.1583C20.9795 23.1983 21.7446 22.4331 22.6907 22.3077C23.1638 22.2521 23.6236 22.3498 23.9993 22.5724C24.0964 22.6275 24.207 22.5719 24.2073 22.4611V17.8693C24.2073 17.0067 24.8197 16.2691 25.6682 16.088L29.801 15.2667ZM22.9553 23.1281C22.2596 23.1281 21.7034 23.6853 21.7034 24.381C21.7035 25.0766 22.2597 25.6329 22.9553 25.6329C23.651 25.6329 24.2072 25.0766 24.2073 24.381C24.2073 23.6853 23.651 23.1281 22.9553 23.1281ZM29.9124 21.7374C29.2167 21.7375 28.6604 22.2937 28.6604 22.9894C28.6604 23.685 29.2167 24.2412 29.9124 24.2413C30.6081 24.2413 31.1653 23.6851 31.1653 22.9894C31.1653 22.2937 30.6081 21.7374 29.9124 21.7374ZM19.7415 13.5275C20.8961 13.5137 21.8418 14.4597 21.842 15.6144C21.842 15.8927 21.5639 16.1156 21.2717 15.9904C21.1048 15.9347 21.0071 15.7677 21.0071 15.6007C21.007 15.0581 20.6591 14.5987 20.1721 14.4318V20.1505C20.1721 21.2497 19.3377 22.2105 18.2385 22.2941C16.9445 22.3776 15.8728 21.2915 16.012 19.9835C16.1095 19.0376 16.8607 18.2583 17.8206 18.1329C18.2936 18.0773 18.7535 18.175 19.1292 18.3976C19.2265 18.4531 19.3372 18.3975 19.3372 18.2863V13.9454C19.3372 13.7228 19.5188 13.5275 19.7415 13.5275ZM18.0852 18.9542C17.3896 18.9543 16.8334 19.5106 16.8333 20.2062C16.8333 20.9019 17.3895 21.459 18.0852 21.4591C18.7809 21.4591 19.3372 20.9019 19.3372 20.2062C19.337 19.5106 18.7808 18.9542 18.0852 18.9542ZM30.803 16.2823C30.5804 16.0877 30.2884 16.0188 29.9963 16.0743L25.8215 16.9083C25.3763 17.0058 25.0422 17.4101 25.0422 17.8693V18.9962L31.1653 17.7716V17.0343C31.1653 16.7421 31.0256 16.4632 30.803 16.2823Z"/>
</mask>
<path d="M29.801 15.2667C30.2602 15.1832 30.7335 15.239 31.137 15.4894C31.6796 15.8233 31.9993 16.4082 31.9993 17.0343V22.9474C31.9993 24.0466 31.1649 24.9928 30.0657 25.0763C28.7716 25.1598 27.7 24.0747 27.8391 22.7667C27.9365 21.8068 28.7017 21.0416 29.6477 20.9161C30.1208 20.8605 30.5806 20.9582 30.9563 21.1808C31.0536 21.2362 31.1651 21.1805 31.1653 21.0695V18.6339L25.0422 19.8585V24.339C25.0422 25.4381 24.2077 26.3843 23.1086 26.4679C21.8146 26.5514 20.743 25.4662 20.8821 24.1583C20.9795 23.1983 21.7446 22.4331 22.6907 22.3077C23.1638 22.2521 23.6236 22.3498 23.9993 22.5724C24.0964 22.6275 24.207 22.5719 24.2073 22.4611V17.8693C24.2073 17.0067 24.8197 16.2691 25.6682 16.088L29.801 15.2667ZM22.9553 23.1281C22.2596 23.1281 21.7034 23.6853 21.7034 24.381C21.7035 25.0766 22.2597 25.6329 22.9553 25.6329C23.651 25.6329 24.2072 25.0766 24.2073 24.381C24.2073 23.6853 23.651 23.1281 22.9553 23.1281ZM29.9124 21.7374C29.2167 21.7375 28.6604 22.2937 28.6604 22.9894C28.6604 23.685 29.2167 24.2412 29.9124 24.2413C30.6081 24.2413 31.1653 23.6851 31.1653 22.9894C31.1653 22.2937 30.6081 21.7374 29.9124 21.7374ZM19.7415 13.5275C20.8961 13.5137 21.8418 14.4597 21.842 15.6144C21.842 15.8927 21.5639 16.1156 21.2717 15.9904C21.1048 15.9347 21.0071 15.7677 21.0071 15.6007C21.007 15.0581 20.6591 14.5987 20.1721 14.4318V20.1505C20.1721 21.2497 19.3377 22.2105 18.2385 22.2941C16.9445 22.3776 15.8728 21.2915 16.012 19.9835C16.1095 19.0376 16.8607 18.2583 17.8206 18.1329C18.2936 18.0773 18.7535 18.175 19.1292 18.3976C19.2265 18.4531 19.3372 18.3975 19.3372 18.2863V13.9454C19.3372 13.7228 19.5188 13.5275 19.7415 13.5275ZM18.0852 18.9542C17.3896 18.9543 16.8334 19.5106 16.8333 20.2062C16.8333 20.9019 17.3895 21.459 18.0852 21.4591C18.7809 21.4591 19.3372 20.9019 19.3372 20.2062C19.337 19.5106 18.7808 18.9542 18.0852 18.9542ZM30.803 16.2823C30.5804 16.0877 30.2884 16.0188 29.9963 16.0743L25.8215 16.9083C25.3763 17.0058 25.0422 17.4101 25.0422 17.8693V18.9962L31.1653 17.7716V17.0343C31.1653 16.7421 31.0256 16.4632 30.803 16.2823Z" fill="white"/>
<path d="M29.801 15.2667L29.7652 15.0699L29.762 15.0706L29.801 15.2667ZM31.137 15.4894L31.0315 15.6593L31.0321 15.6597L31.137 15.4894ZM30.0657 25.0763L30.0786 25.2759L30.0808 25.2757L30.0657 25.0763ZM27.8391 22.7667L28.038 22.7879L28.0381 22.7869L27.8391 22.7667ZM29.6477 20.9161L29.6243 20.7175L29.6214 20.7179L29.6477 20.9161ZM30.9563 21.1808L30.8543 21.3529L30.8573 21.3546L30.9563 21.1808ZM31.1653 21.0695L31.3653 21.0698V21.0695H31.1653ZM31.1653 18.6339H31.3653V18.39L31.1261 18.4378L31.1653 18.6339ZM25.0422 19.8585L25.003 19.6624L24.8422 19.6946V19.8585H25.0422ZM23.1086 26.4679L23.1215 26.6675L23.1238 26.6673L23.1086 26.4679ZM20.8821 24.1583L21.081 24.1795L21.0811 24.1785L20.8821 24.1583ZM22.6907 22.3077L22.6673 22.1091L22.6644 22.1095L22.6907 22.3077ZM23.9993 22.5724L23.8973 22.7445L23.9006 22.7463L23.9993 22.5724ZM24.2073 22.4611L24.4073 22.4616V22.4611H24.2073ZM25.6682 16.088L25.6292 15.8918L25.6265 15.8924L25.6682 16.088ZM22.9553 23.1281L22.9553 22.9281H22.9553V23.1281ZM21.7034 24.381H21.5034V24.381L21.7034 24.381ZM22.9553 25.6329V25.8329H22.9553L22.9553 25.6329ZM24.2073 24.381L24.4073 24.381V24.381H24.2073ZM29.9124 21.7374V21.5374H29.9123L29.9124 21.7374ZM28.6604 22.9894H28.4604V22.9894L28.6604 22.9894ZM29.9124 24.2413L29.9123 24.4413H29.9124V24.2413ZM31.1653 22.9894L31.3653 22.9894V22.9894H31.1653ZM19.7415 13.5275V13.7275L19.7438 13.7275L19.7415 13.5275ZM21.842 15.6144H22.042V15.6143L21.842 15.6144ZM21.2717 15.9904L21.3505 15.8065L21.3429 15.8033L21.335 15.8006L21.2717 15.9904ZM21.0071 15.6007H21.2071V15.6007L21.0071 15.6007ZM20.1721 14.4318L20.237 14.2426L19.9721 14.1518V14.4318H20.1721ZM18.2385 22.2941L18.2514 22.4937L18.2537 22.4935L18.2385 22.2941ZM16.012 19.9835L16.2108 20.0047L16.2109 20.004L16.012 19.9835ZM17.8206 18.1329L17.7972 17.9343L17.7947 17.9346L17.8206 18.1329ZM19.1292 18.3976L19.0272 18.5697L19.0301 18.5713L19.1292 18.3976ZM18.0852 18.9542V18.7542H18.0852L18.0852 18.9542ZM16.8333 20.2062L16.6333 20.2061V20.2062H16.8333ZM18.0852 21.4591L18.0852 21.6591H18.0852V21.4591ZM19.3372 20.2062H19.5372V20.2061L19.3372 20.2062ZM30.803 16.2823L30.6712 16.433L30.6769 16.4376L30.803 16.2823ZM29.9963 16.0743L29.959 15.8779L29.9572 15.8782L29.9963 16.0743ZM25.8215 16.9083L25.7823 16.7122L25.7788 16.7129L25.8215 16.9083ZM25.0422 18.9962H24.8422V19.2402L25.0815 19.1923L25.0422 18.9962ZM31.1653 17.7716L31.2045 17.9677L31.3653 17.9356V17.7716H31.1653ZM29.801 15.2667L29.8368 15.4635C30.2575 15.387 30.6783 15.4401 31.0315 15.6593L31.137 15.4894L31.2424 15.3194C30.7887 15.0378 30.2629 14.9795 29.7652 15.0699L29.801 15.2667ZM31.137 15.4894L31.0321 15.6597C31.5149 15.9568 31.7993 16.4767 31.7993 17.0343H31.9993H32.1993C32.1993 16.3396 31.8444 15.6899 31.2418 15.319L31.137 15.4894ZM31.9993 17.0343H31.7993V22.9474H31.9993H32.1993V17.0343H31.9993ZM31.9993 22.9474H31.7993C31.7993 23.9474 31.0402 24.8017 30.0505 24.8769L30.0657 25.0763L30.0808 25.2757C31.2896 25.1839 32.1993 24.1458 32.1993 22.9474H31.9993ZM30.0657 25.0763L30.0528 24.8767C28.8799 24.9524 27.9123 23.9699 28.038 22.7879L27.8391 22.7667L27.6402 22.7456C27.4877 24.1794 28.6634 25.3672 30.0786 25.2759L30.0657 25.0763ZM27.8391 22.7667L28.0381 22.7869C28.1259 21.9216 28.8174 21.228 29.674 21.1144L29.6477 20.9161L29.6214 20.7179C28.586 20.8551 27.7471 21.692 27.6401 22.7465L27.8391 22.7667ZM29.6477 20.9161L29.6711 21.1148C30.1025 21.064 30.518 21.1535 30.8543 21.3528L30.9563 21.1808L31.0583 21.0087C30.6432 20.7628 30.1391 20.657 29.6243 20.7175L29.6477 20.9161ZM30.9563 21.1808L30.8573 21.3546C30.9608 21.4135 31.0851 21.4193 31.1896 21.3649C31.297 21.3089 31.3651 21.1982 31.3653 21.0698L31.1653 21.0695L30.9653 21.0691C30.9653 21.0627 30.9672 21.0512 30.9748 21.0384C30.9823 21.026 30.993 21.0163 31.0048 21.0102C31.0292 20.9974 31.0491 21.0035 31.0553 21.007L30.9563 21.1808ZM31.1653 21.0695H31.3653V18.6339H31.1653H30.9653V21.0695H31.1653ZM31.1653 18.6339L31.1261 18.4378L25.003 19.6624L25.0422 19.8585L25.0815 20.0546L31.2045 18.83L31.1653 18.6339ZM25.0422 19.8585H24.8422V24.339H25.0422H25.2422V19.8585H25.0422ZM25.0422 24.339H24.8422C24.8422 25.3389 24.0831 26.1932 23.0935 26.2685L23.1086 26.4679L23.1238 26.6673C24.3324 26.5754 25.2422 25.5374 25.2422 24.339H25.0422ZM23.1086 26.4679L23.0958 26.2683C21.9229 26.344 20.9553 25.3615 21.081 24.1795L20.8821 24.1583L20.6832 24.1372C20.5308 25.571 21.7064 26.7588 23.1215 26.6675L23.1086 26.4679ZM20.8821 24.1583L21.0811 24.1785C21.1689 23.3131 21.8603 22.6195 22.7169 22.506L22.6907 22.3077L22.6644 22.1095C21.6289 22.2467 20.7901 23.0835 20.6831 24.1381L20.8821 24.1583ZM22.6907 22.3077L22.714 22.5064C23.1455 22.4556 23.561 22.5451 23.8973 22.7444L23.9993 22.5724L24.1012 22.4003C23.6862 22.1544 23.182 22.0486 22.6673 22.1091L22.6907 22.3077ZM23.9993 22.5724L23.9006 22.7463C24.0038 22.8049 24.1279 22.8109 24.2324 22.7561C24.3397 22.6999 24.4069 22.5892 24.4073 22.4616L24.2073 22.4611L24.0073 22.4605C24.0073 22.4543 24.0091 22.443 24.0167 22.4303C24.0241 22.4179 24.0348 22.4081 24.0468 22.4018C24.0716 22.3888 24.0919 22.395 24.098 22.3984L23.9993 22.5724ZM24.2073 22.4611H24.4073V17.8693H24.2073H24.0073V22.4611H24.2073ZM24.2073 17.8693H24.4073C24.4073 17.104 24.9509 16.4456 25.7099 16.2836L25.6682 16.088L25.6265 15.8924C24.6885 16.0926 24.0073 16.9095 24.0073 17.8693H24.2073ZM25.6682 16.088L25.7072 16.2842L29.84 15.4629L29.801 15.2667L29.762 15.0706L25.6292 15.8918L25.6682 16.088ZM22.9553 23.1281V22.9281C22.1489 22.9281 21.5034 23.575 21.5034 24.381H21.7034H21.9034C21.9034 23.7955 22.3703 23.3281 22.9553 23.3281V23.1281ZM21.7034 24.381L21.5034 24.381C21.5035 25.1871 22.1492 25.8329 22.9553 25.8329V25.6329V25.4329C22.3701 25.4329 21.9035 24.9662 21.9034 24.381L21.7034 24.381ZM22.9553 25.6329L22.9553 25.8329C23.7615 25.8329 24.4072 25.187 24.4073 24.381L24.2073 24.381L24.0073 24.381C24.0072 24.9662 23.5405 25.4329 22.9553 25.4329L22.9553 25.6329ZM24.2073 24.381H24.4073C24.4073 23.575 23.7617 22.9281 22.9553 22.9281L22.9553 23.1281L22.9553 23.3281C23.5404 23.3281 24.0073 23.7955 24.0073 24.381H24.2073ZM29.9124 21.7374L29.9123 21.5374C29.1063 21.5376 28.4604 22.1832 28.4604 22.9894H28.6604H28.8604C28.8604 22.4042 29.3272 21.9375 29.9124 21.9374L29.9124 21.7374ZM28.6604 22.9894L28.4604 22.9894C28.4604 23.7955 29.1063 24.4412 29.9123 24.4413L29.9124 24.2413L29.9124 24.0413C29.3272 24.0412 28.8604 23.5745 28.8604 22.9894L28.6604 22.9894ZM29.9124 24.2413V24.4413C30.7183 24.4413 31.3653 23.7957 31.3653 22.9894L31.1653 22.9894L30.9653 22.9894C30.9653 23.5744 30.4978 24.0413 29.9124 24.0413V24.2413ZM31.1653 22.9894H31.3653C31.3653 22.183 30.7183 21.5374 29.9124 21.5374V21.7374V21.9374C30.4978 21.9374 30.9653 22.4043 30.9653 22.9894H31.1653ZM19.7415 13.5275L19.7438 13.7275C20.7857 13.7151 21.6419 14.5697 21.642 15.6144L21.842 15.6144L22.042 15.6143C22.0418 14.3498 21.0065 13.3124 19.7391 13.3275L19.7415 13.5275ZM21.842 15.6144H21.642C21.642 15.7646 21.4968 15.8692 21.3505 15.8065L21.2717 15.9904L21.1929 16.1742C21.6311 16.362 22.042 16.0207 22.042 15.6144H21.842ZM21.2717 15.9904L21.335 15.8006C21.264 15.777 21.2071 15.6977 21.2071 15.6007H21.0071H20.8071C20.8071 15.8376 20.9456 16.0924 21.2085 16.1801L21.2717 15.9904ZM21.0071 15.6007L21.2071 15.6007C21.207 14.97 20.8023 14.4364 20.237 14.2426L20.1721 14.4318L20.1073 14.621C20.5159 14.7611 20.807 15.1462 20.8071 15.6007L21.0071 15.6007ZM20.1721 14.4318H19.9721V20.1505H20.1721H20.3721V14.4318H20.1721ZM20.1721 20.1505H19.9721C19.9721 21.1522 19.2114 22.0196 18.2234 22.0946L18.2385 22.2941L18.2537 22.4935C19.4641 22.4015 20.3721 21.3472 20.3721 20.1505H20.1721ZM18.2385 22.2941L18.2256 22.0945C17.0528 22.1701 16.0851 21.1868 16.2108 20.0047L16.012 19.9835L15.8131 19.9624C15.6606 21.3961 16.8361 22.585 18.2514 22.4937L18.2385 22.2941ZM16.012 19.9835L16.2109 20.004C16.2989 19.1503 16.9785 18.4446 17.8465 18.3313L17.8206 18.1329L17.7947 17.9346C16.7429 18.072 15.9201 18.9249 15.813 19.963L16.012 19.9835ZM17.8206 18.1329L17.8439 18.3316C18.2754 18.2808 18.6909 18.3703 19.0272 18.5696L19.1292 18.3976L19.2311 18.2255C18.816 17.9796 18.3119 17.8737 17.7972 17.9343L17.8206 18.1329ZM19.1292 18.3976L19.0301 18.5713C19.1332 18.6301 19.2576 18.6366 19.3625 18.5816C19.4702 18.5252 19.5372 18.414 19.5372 18.2863H19.3372H19.1372C19.1372 18.2803 19.1389 18.2689 19.1465 18.2561C19.1539 18.2436 19.1648 18.2336 19.1769 18.2273C19.2021 18.2141 19.2225 18.2206 19.2282 18.2238L19.1292 18.3976ZM19.3372 18.2863H19.5372V13.9454H19.3372H19.1372V18.2863H19.3372ZM19.3372 13.9454H19.5372C19.5372 13.8246 19.6378 13.7275 19.7415 13.7275V13.5275V13.3275C19.3999 13.3275 19.1372 13.621 19.1372 13.9454H19.3372ZM18.0852 18.9542L18.0852 18.7542C17.2792 18.7543 16.6334 19.4002 16.6333 20.2061L16.8333 20.2062L17.0333 20.2062C17.0334 19.6211 17.5001 19.1543 18.0852 19.1542L18.0852 18.9542ZM16.8333 20.2062H16.6333C16.6333 21.0121 17.2789 21.659 18.0852 21.6591L18.0852 21.4591L18.0852 21.2591C17.5002 21.2591 17.0333 20.7916 17.0333 20.2062H16.8333ZM18.0852 21.4591V21.6591C18.8916 21.6591 19.5372 21.0122 19.5372 20.2062H19.3372H19.1372C19.1372 20.7916 18.6703 21.2591 18.0852 21.2591V21.4591ZM19.3372 20.2062L19.5372 20.2061C19.537 19.4002 18.8913 18.7542 18.0852 18.7542V18.9542V19.1542C18.6703 19.1542 19.137 19.621 19.1372 20.2062L19.3372 20.2062ZM30.803 16.2823L30.9346 16.1318C30.6618 15.8932 30.306 15.8118 29.959 15.8779L29.9963 16.0743L30.0337 16.2708C30.2708 16.2257 30.4991 16.2823 30.6713 16.4329L30.803 16.2823ZM29.9963 16.0743L29.9572 15.8782L25.7824 16.7122L25.8215 16.9083L25.8607 17.1045L30.0355 16.2705L29.9963 16.0743ZM25.8215 16.9083L25.7788 16.7129C25.2439 16.83 24.8422 17.3139 24.8422 17.8693H25.0422H25.2422C25.2422 17.5063 25.5087 17.1815 25.8643 17.1037L25.8215 16.9083ZM25.0422 17.8693H24.8422V18.9962H25.0422H25.2422V17.8693H25.0422ZM25.0422 18.9962L25.0815 19.1923L31.2045 17.9677L31.1653 17.7716L31.1261 17.5755L25.003 18.8001L25.0422 18.9962ZM31.1653 17.7716H31.3653V17.0343H31.1653H30.9653V17.7716H31.1653ZM31.1653 17.0343H31.3653C31.3653 16.6793 31.1964 16.3443 30.9291 16.1271L30.803 16.2823L30.6769 16.4376C30.8548 16.5822 30.9653 16.8049 30.9653 17.0343H31.1653Z" fill="white" mask="url(#path-3-outside-1_43_17)"/>
<g filter="url(#filter1_dd_43_17)">
<circle cx="24" cy="54" r="5" fill="white"/>
<circle cx="24" cy="54" r="4" stroke="#0077FF" stroke-width="2"/>
</g>
<defs>
<filter id="filter0_dd_43_17" x="0" y="0" width="48" height="61" filterUnits="userSpaceOnUse" color-interpolation-filters="sRGB">
<feFlood flood-opacity="0" result="BackgroundImageFix"/>
<feColorMatrix in="SourceAlpha" type="matrix" values="0 0 0 0 0 0 0 0 0 0 0 0 0 0 0 0 0 0 127 0" result="hardAlpha"/>
<feOffset dy="2"/>
<feGaussianBlur stdDeviation="1"/>
<feComposite in2="hardAlpha" operator="out"/>
<feColorMatrix type="matrix" values="0 0 0 0 0 0 0 0 0 0 0 0 0 0 0 0 0 0 0.1 0"/>
<feBlend mode="normal" in2="BackgroundImageFix" result="effect1_dropShadow_43_17"/>
<feColorMatrix in="SourceAlpha" type="matrix" values="0 0 0 0 0 0 0 0 0 0 0 0 0 0 0 0 0 0 127 0" result="hardAlpha"/>
<feOffset dy="4"/>
<feGaussianBlur stdDeviation="4.5"/>
<feComposite in2="hardAlpha" operator="out"/>
<feColorMatrix type="matrix" values="0 0 0 0 0 0 0 0 0 0 0 0 0 0 0 0 0 0 0.15 0"/>
<feBlend mode="normal" in2="effect1_dropShadow_43_17" result="effect2_dropShadow_43_17"/>
<feBlend mode="normal" in="SourceGraphic" in2="effect2_dropShadow_43_17" result="shape"/>
</filter>
<filter id="filter1_dd_43_17" x="10" y="44" width="28" height="28" filterUnits="userSpaceOnUse" color-interpolation-filters="sRGB">
<feFlood flood-opacity="0" result="BackgroundImageFix"/>
<feColorMatrix in="SourceAlpha" type="matrix" values="0 0 0 0 0 0 0 0 0 0 0 0 0 0 0 0 0 0 127 0" result="hardAlpha"/>
<feOffset dy="4"/>
<feGaussianBlur stdDeviation="4.5"/>
<feComposite in2="hardAlpha" operator="out"/>
<feColorMatrix type="matrix" values="0 0 0 0 0 0 0 0 0 0 0 0 0 0 0 0 0 0 0.15 0"/>
<feBlend mode="normal" in2="BackgroundImageFix" result="effect1_dropShadow_43_17"/>
<feColorMatrix in="SourceAlpha" type="matrix" values="0 0 0 0 0 0 0 0 0 0 0 0 0 0 0 0 0 0 127 0" result="hardAlpha"/>
<feOffset dy="2"/>
<feGaussianBlur stdDeviation="1"/>
<feComposite in2="hardAlpha" operator="out"/>
<feColorMatrix type="matrix" values="0 0 0 0 0 0 0 0 0 0 0 0 0 0 0 0 0 0 0.1 0"/>
<feBlend mode="normal" in2="effect1_dropShadow_43_17" result="effect2_dropShadow_43_17"/>
<feBlend mode="normal" in="SourceGraphic" in2="effect2_dropShadow_43_17" result="shape"/>
</filter>
</defs>
</svg>
