<svg width="58" height="85" viewBox="0 0 58 85" fill="none" xmlns="http://www.w3.org/2000/svg">
<g filter="url(#filter0_dd_57_325)">
<path d="M28.5349 5C17.7349 5 9 13.764 9 24.6C9 39.3 28.5349 61 28.5349 61C28.5349 61 48.0698 39.3 48.0698 24.6C48.0698 13.764 39.3349 5 28.5349 5ZM28.5349 31.6C24.6837 31.6 21.5581 28.464 21.5581 24.6C21.5581 20.736 24.6837 17.6 28.5349 17.6C32.386 17.6 35.5116 20.736 35.5116 24.6C35.5116 28.464 32.386 31.6 28.5349 31.6Z" fill="white"/>
</g>
<rect x="11.5" y="8" width="33.8" height="33.8" rx="16.9" fill="#8E4C12" fill-opacity="0.99"/>
<path d="M20.3999 33.8999V28.8999C20.3999 28.3499 20.5957 27.8791 20.9874 27.4874C21.3791 27.0957 21.8499 26.8999 22.3999 26.8999H34.3999C34.9499 26.8999 35.4207 27.0957 35.8124 27.4874C36.2041 27.8791 36.3999 28.3499 36.3999 28.8999V33.8999H20.3999ZM25.3999 25.8999C24.0166 25.8999 22.8374 25.4124 21.8624 24.4374C20.8874 23.4624 20.3999 22.2832 20.3999 20.8999C20.3999 19.5166 20.8874 18.3374 21.8624 17.3624C22.8374 16.3874 24.0166 15.8999 25.3999 15.8999H31.3999C32.7832 15.8999 33.9624 16.3874 34.9374 17.3624C35.9124 18.3374 36.3999 19.5166 36.3999 20.8999C36.3999 22.2832 35.9124 23.4624 34.9374 24.4374C33.9624 25.4124 32.7832 25.8999 31.3999 25.8999H25.3999ZM22.3999 31.8999H34.3999V28.8999H22.3999V31.8999ZM25.3999 23.8999H31.3999C32.2332 23.8999 32.9416 23.6082 33.5249 23.0249C34.1082 22.4416 34.3999 21.7332 34.3999 20.8999C34.3999 20.0666 34.1082 19.3582 33.5249 18.7749C32.9416 18.1916 32.2332 17.8999 31.3999 17.8999H25.3999C24.5666 17.8999 23.8582 18.1916 23.2749 18.7749C22.6916 19.3582 22.3999 20.0666 22.3999 20.8999C22.3999 21.7332 22.6916 22.4416 23.2749 23.0249C23.8582 23.6082 24.5666 23.8999 25.3999 23.8999ZM26.1124 21.6124C26.3041 21.4207 26.3999 21.1832 26.3999 20.8999C26.3999 20.6166 26.3041 20.3791 26.1124 20.1874C25.9207 19.9957 25.6832 19.8999 25.3999 19.8999C25.1166 19.8999 24.8791 19.9957 24.6874 20.1874C24.4957 20.3791 24.3999 20.6166 24.3999 20.8999C24.3999 21.1832 24.4957 21.4207 24.6874 21.6124C24.8791 21.8041 25.1166 21.8999 25.3999 21.8999C25.6832 21.8999 25.9207 21.8041 26.1124 21.6124ZM32.1124 21.6124C32.3041 21.4207 32.3999 21.1832 32.3999 20.8999C32.3999 20.6166 32.3041 20.3791 32.1124 20.1874C31.9207 19.9957 31.6832 19.8999 31.3999 19.8999C31.1166 19.8999 30.8791 19.9957 30.6874 20.1874C30.4957 20.3791 30.3999 20.6166 30.3999 20.8999C30.3999 21.1832 30.4957 21.4207 30.6874 21.6124C30.8791 21.8041 31.1166 21.8999 31.3999 21.8999C31.6832 21.8999 31.9207 21.8041 32.1124 21.6124Z" fill="white"/>
<g filter="url(#filter1_dd_57_325)">
<circle cx="28.5" cy="67" r="5" fill="white"/>
<circle cx="28.5" cy="67" r="4" stroke="#8F4E14" stroke-width="2"/>
</g>
<defs>
<filter id="filter0_dd_57_325" x="0" y="0" width="57.0698" height="74" filterUnits="userSpaceOnUse" color-interpolation-filters="sRGB">
<feFlood flood-opacity="0" result="BackgroundImageFix"/>
<feColorMatrix in="SourceAlpha" type="matrix" values="0 0 0 0 0 0 0 0 0 0 0 0 0 0 0 0 0 0 127 0" result="hardAlpha"/>
<feOffset dy="2"/>
<feGaussianBlur stdDeviation="1"/>
<feComposite in2="hardAlpha" operator="out"/>
<feColorMatrix type="matrix" values="0 0 0 0 0 0 0 0 0 0 0 0 0 0 0 0 0 0 0.1 0"/>
<feBlend mode="normal" in2="BackgroundImageFix" result="effect1_dropShadow_57_325"/>
<feColorMatrix in="SourceAlpha" type="matrix" values="0 0 0 0 0 0 0 0 0 0 0 0 0 0 0 0 0 0 127 0" result="hardAlpha"/>
<feOffset dy="4"/>
<feGaussianBlur stdDeviation="4.5"/>
<feComposite in2="hardAlpha" operator="out"/>
<feColorMatrix type="matrix" values="0 0 0 0 0 0 0 0 0 0 0 0 0 0 0 0 0 0 0.15 0"/>
<feBlend mode="normal" in2="effect1_dropShadow_57_325" result="effect2_dropShadow_57_325"/>
<feBlend mode="normal" in="SourceGraphic" in2="effect2_dropShadow_57_325" result="shape"/>
</filter>
<filter id="filter1_dd_57_325" x="14.5" y="57" width="28" height="28" filterUnits="userSpaceOnUse" color-interpolation-filters="sRGB">
<feFlood flood-opacity="0" result="BackgroundImageFix"/>
<feColorMatrix in="SourceAlpha" type="matrix" values="0 0 0 0 0 0 0 0 0 0 0 0 0 0 0 0 0 0 127 0" result="hardAlpha"/>
<feOffset dy="4"/>
<feGaussianBlur stdDeviation="4.5"/>
<feComposite in2="hardAlpha" operator="out"/>
<feColorMatrix type="matrix" values="0 0 0 0 0 0 0 0 0 0 0 0 0 0 0 0 0 0 0.15 0"/>
<feBlend mode="normal" in2="BackgroundImageFix" result="effect1_dropShadow_57_325"/>
<feColorMatrix in="SourceAlpha" type="matrix" values="0 0 0 0 0 0 0 0 0 0 0 0 0 0 0 0 0 0 127 0" result="hardAlpha"/>
<feOffset dy="2"/>
<feGaussianBlur stdDeviation="1"/>
<feComposite in2="hardAlpha" operator="out"/>
<feColorMatrix type="matrix" values="0 0 0 0 0 0 0 0 0 0 0 0 0 0 0 0 0 0 0.1 0"/>
<feBlend mode="normal" in2="effect1_dropShadow_57_325" result="effect2_dropShadow_57_325"/>
<feBlend mode="normal" in="SourceGraphic" in2="effect2_dropShadow_57_325" result="shape"/>
</filter>
</defs>
</svg>
