<svg width="58" height="85" viewBox="0 0 58 85" fill="none" xmlns="http://www.w3.org/2000/svg">
<g filter="url(#filter0_dd_57_367)">
<path d="M28.5349 5C17.7349 5 9 13.764 9 24.6C9 39.3 28.5349 61 28.5349 61C28.5349 61 48.0698 39.3 48.0698 24.6C48.0698 13.764 39.3349 5 28.5349 5ZM28.5349 31.6C24.6837 31.6 21.5581 28.464 21.5581 24.6C21.5581 20.736 24.6837 17.6 28.5349 17.6C32.386 17.6 35.5116 20.736 35.5116 24.6C35.5116 28.464 32.386 31.6 28.5349 31.6Z" fill="white"/>
</g>
<rect x="11.5" y="8" width="33.8" height="33.8" rx="16.9" fill="#9B963A"/>
<path d="M21.9125 30.675C21.5792 30.4917 21.3208 30.2459 21.1375 29.9375C20.9542 29.6292 20.8625 29.2834 20.8625 28.9V24.1L18.4625 22.775C18.2792 22.675 18.1458 22.55 18.0625 22.4C17.9792 22.25 17.9375 22.0834 17.9375 21.9C17.9375 21.7167 17.9792 21.55 18.0625 21.4C18.1458 21.25 18.2792 21.125 18.4625 21.025L26.9125 16.425C27.0625 16.3417 27.2167 16.2792 27.375 16.2375C27.5333 16.1959 27.6958 16.175 27.8625 16.175C28.0292 16.175 28.1917 16.1959 28.35 16.2375C28.5083 16.2792 28.6625 16.3417 28.8125 16.425L38.3375 21.625C38.5042 21.7084 38.6333 21.8292 38.725 21.9875C38.8167 22.1459 38.8625 22.3167 38.8625 22.5V28.9C38.8625 29.1834 38.7667 29.4209 38.575 29.6125C38.3833 29.8042 38.1458 29.9 37.8625 29.9C37.5792 29.9 37.3417 29.8042 37.15 29.6125C36.9583 29.4209 36.8625 29.1834 36.8625 28.9V23L34.8625 24.1V28.9C34.8625 29.2834 34.7708 29.6292 34.5875 29.9375C34.4042 30.2459 34.1458 30.4917 33.8125 30.675L28.8125 33.375C28.6625 33.4584 28.5083 33.5209 28.35 33.5625C28.1917 33.6042 28.0292 33.625 27.8625 33.625C27.6958 33.625 27.5333 33.6042 27.375 33.5625C27.2167 33.5209 27.0625 33.4584 26.9125 33.375L21.9125 30.675ZM27.8625 25.6L34.7125 21.9L27.8625 18.2L21.0125 21.9L27.8625 25.6ZM27.8625 31.625L32.8625 28.925V25.15L28.8375 27.375C28.6875 27.4584 28.5292 27.5209 28.3625 27.5625C28.1958 27.6042 28.0292 27.625 27.8625 27.625C27.6958 27.625 27.5292 27.6042 27.3625 27.5625C27.1958 27.5209 27.0375 27.4584 26.8875 27.375L22.8625 25.15V28.925L27.8625 31.625Z" fill="white"/>
<g filter="url(#filter1_dd_57_367)">
<circle cx="28.5" cy="67" r="5" fill="white"/>
<circle cx="28.5" cy="67" r="4" stroke="#9B963A" stroke-width="2"/>
</g>
<defs>
<filter id="filter0_dd_57_367" x="0" y="0" width="57.0698" height="74" filterUnits="userSpaceOnUse" color-interpolation-filters="sRGB">
<feFlood flood-opacity="0" result="BackgroundImageFix"/>
<feColorMatrix in="SourceAlpha" type="matrix" values="0 0 0 0 0 0 0 0 0 0 0 0 0 0 0 0 0 0 127 0" result="hardAlpha"/>
<feOffset dy="2"/>
<feGaussianBlur stdDeviation="1"/>
<feComposite in2="hardAlpha" operator="out"/>
<feColorMatrix type="matrix" values="0 0 0 0 0 0 0 0 0 0 0 0 0 0 0 0 0 0 0.1 0"/>
<feBlend mode="normal" in2="BackgroundImageFix" result="effect1_dropShadow_57_367"/>
<feColorMatrix in="SourceAlpha" type="matrix" values="0 0 0 0 0 0 0 0 0 0 0 0 0 0 0 0 0 0 127 0" result="hardAlpha"/>
<feOffset dy="4"/>
<feGaussianBlur stdDeviation="4.5"/>
<feComposite in2="hardAlpha" operator="out"/>
<feColorMatrix type="matrix" values="0 0 0 0 0 0 0 0 0 0 0 0 0 0 0 0 0 0 0.15 0"/>
<feBlend mode="normal" in2="effect1_dropShadow_57_367" result="effect2_dropShadow_57_367"/>
<feBlend mode="normal" in="SourceGraphic" in2="effect2_dropShadow_57_367" result="shape"/>
</filter>
<filter id="filter1_dd_57_367" x="14.5" y="57" width="28" height="28" filterUnits="userSpaceOnUse" color-interpolation-filters="sRGB">
<feFlood flood-opacity="0" result="BackgroundImageFix"/>
<feColorMatrix in="SourceAlpha" type="matrix" values="0 0 0 0 0 0 0 0 0 0 0 0 0 0 0 0 0 0 127 0" result="hardAlpha"/>
<feOffset dy="4"/>
<feGaussianBlur stdDeviation="4.5"/>
<feComposite in2="hardAlpha" operator="out"/>
<feColorMatrix type="matrix" values="0 0 0 0 0 0 0 0 0 0 0 0 0 0 0 0 0 0 0.15 0"/>
<feBlend mode="normal" in2="BackgroundImageFix" result="effect1_dropShadow_57_367"/>
<feColorMatrix in="SourceAlpha" type="matrix" values="0 0 0 0 0 0 0 0 0 0 0 0 0 0 0 0 0 0 127 0" result="hardAlpha"/>
<feOffset dy="2"/>
<feGaussianBlur stdDeviation="1"/>
<feComposite in2="hardAlpha" operator="out"/>
<feColorMatrix type="matrix" values="0 0 0 0 0 0 0 0 0 0 0 0 0 0 0 0 0 0 0.1 0"/>
<feBlend mode="normal" in2="effect1_dropShadow_57_367" result="effect2_dropShadow_57_367"/>
<feBlend mode="normal" in="SourceGraphic" in2="effect2_dropShadow_57_367" result="shape"/>
</filter>
</defs>
</svg>
