<svg width="58" height="85" viewBox="0 0 58 85" fill="none" xmlns="http://www.w3.org/2000/svg">
<g filter="url(#filter0_dd_57_208)">
<path d="M28.5349 5C17.7349 5 9 13.764 9 24.6C9 39.3 28.5349 61 28.5349 61C28.5349 61 48.0698 39.3 48.0698 24.6C48.0698 13.764 39.3349 5 28.5349 5ZM28.5349 31.6C24.6837 31.6 21.5581 28.464 21.5581 24.6C21.5581 20.736 24.6837 17.6 28.5349 17.6C32.386 17.6 35.5116 20.736 35.5116 24.6C35.5116 28.464 32.386 31.6 28.5349 31.6Z" fill="white"/>
</g>
<rect x="11.5" y="8" width="33.8" height="33.8" rx="16.9" fill="#42AE78" fill-opacity="0.99"/>
<mask id="path-3-outside-1_57_208" maskUnits="userSpaceOnUse" x="17.3986" y="13.8999" width="22" height="22" fill="black">
<rect fill="white" x="17.3986" y="13.8999" width="22" height="22"/>
<path fill-rule="evenodd" clip-rule="evenodd" d="M29.542 14.9306C30.9662 14.718 32.3094 15.6301 32.6318 17.0195L33.2168 19.5371C34.174 19.6321 35.1272 19.7495 36.0537 19.8867C37.4747 20.0971 38.4944 21.3582 38.3945 22.7841L38.1464 26.3154C38.0222 28.0929 37.4128 29.8046 36.3857 31.2646C35.1709 32.9903 33.7898 34.1192 32.2802 34.6211C30.7195 35.1391 29.1433 34.8749 28.2607 34.3252C26.7214 33.3662 25.4827 32.0087 24.6699 30.3945C21.8864 29.083 19.9372 26.5921 19.2705 23.7216L18.4697 20.2724C18.1458 18.8781 18.9564 17.4746 20.3271 17.0459C23.3752 16.0926 26.5654 15.3756 29.542 14.9306ZM33.4023 20.3427C33.4121 20.4036 33.8162 21.8684 33.6377 23.6474C33.9558 23.5419 34.2962 23.4933 34.6054 23.5175C35.7301 23.6052 36.2383 24.6045 36.2431 24.6142C36.3388 24.8073 36.2592 25.0417 36.0664 25.1377C35.8731 25.2327 35.6378 25.155 35.542 24.9609C35.5373 24.952 35.21 24.3476 34.5449 24.2959C34.2105 24.2699 33.7942 24.3804 33.5019 24.5654C33.2031 26.0853 32.5533 27.504 31.6025 28.7187C32.4582 28.6196 33.0505 28.3094 33.2802 28.1884C33.406 28.1229 33.5573 28.1299 33.6757 28.207C33.7942 28.2842 33.8613 28.4202 33.8515 28.5615C33.8304 28.8638 33.6917 29.914 32.7783 30.7041C32.0086 31.3699 31.1417 31.4687 30.6943 31.4687C30.0985 31.4687 29.4605 31.2875 28.9101 30.9004C28.072 31.1992 27.1742 31.2288 26.333 31.0039C26.1642 30.9584 25.9964 30.9078 25.83 30.8535C26.5544 31.9846 27.5225 32.9451 28.6738 33.6621C28.6875 33.671 30.0919 34.5244 32.0341 33.8798C33.382 33.4325 34.6314 32.4012 35.747 30.8154C36.6921 29.4716 37.2526 27.8968 37.3672 26.2607L37.6152 22.7285C37.6857 21.7177 36.9502 20.8088 35.9394 20.6601C35.1104 20.5375 34.259 20.4312 33.4023 20.3427ZM31.8701 17.1963C31.641 16.2089 30.6689 15.553 29.6572 15.7041C26.5107 16.1743 23.3682 16.9134 20.5595 17.792C19.5853 18.0964 19.0017 19.1084 19.2304 20.0957L20.0312 23.5449C20.7758 26.7508 23.236 29.3665 26.5351 30.25C27.671 30.5535 28.8875 30.2777 29.7822 29.5039C32.2965 27.3245 33.4323 23.9258 32.6709 20.6455L31.8701 17.1963ZM29.7148 23.58C29.8501 23.6191 29.9546 23.7284 29.9863 23.8662C30.3777 25.5518 29.3175 27.2277 27.6328 27.6152C25.9746 27.9983 24.259 26.9736 23.8652 25.2724C23.8336 25.1345 23.8787 24.9904 23.9834 24.8955C24.0888 24.8006 24.2372 24.7692 24.3711 24.8144C24.6999 24.9265 25.6995 25.2662 27.0117 24.9511C28.2416 24.6563 29.0436 23.9617 29.331 23.6767C29.4317 23.5778 29.5785 23.5411 29.7148 23.58ZM22.3261 20.4062C23.0074 20.2438 23.7333 20.4627 24.2197 20.9775C24.3683 21.1342 24.3608 21.3824 24.2041 21.5302C24.0474 21.678 23.7999 21.6712 23.6513 21.5146C23.3517 21.1971 22.9243 21.067 22.5078 21.166C21.8647 21.3195 21.6368 21.9553 21.6279 21.9804C21.5629 22.1839 21.3459 22.2984 21.1416 22.2363C20.9355 22.1738 20.8186 21.9551 20.8808 21.749C20.8841 21.7376 21.2213 20.6695 22.3261 20.4062ZM29.2187 18.8232C29.8992 18.6608 30.6259 18.8806 31.1123 19.3955C31.2604 19.5521 31.253 19.7995 31.0966 19.9472C30.9399 20.0958 30.6917 20.0883 30.5439 19.9316C30.2443 19.6144 29.8167 19.485 29.4004 19.5839C28.756 19.7374 28.5267 20.3794 28.5195 20.3994C28.4667 20.5649 28.3139 20.6707 28.1484 20.6709C27.8821 20.6709 27.6958 20.412 27.7754 20.1611C27.7892 20.1173 28.1275 19.0831 29.2187 18.8232Z"/>
</mask>
<path fill-rule="evenodd" clip-rule="evenodd" d="M29.542 14.9306C30.9662 14.718 32.3094 15.6301 32.6318 17.0195L33.2168 19.5371C34.174 19.6321 35.1272 19.7495 36.0537 19.8867C37.4747 20.0971 38.4944 21.3582 38.3945 22.7841L38.1464 26.3154C38.0222 28.0929 37.4128 29.8046 36.3857 31.2646C35.1709 32.9903 33.7898 34.1192 32.2802 34.6211C30.7195 35.1391 29.1433 34.8749 28.2607 34.3252C26.7214 33.3662 25.4827 32.0087 24.6699 30.3945C21.8864 29.083 19.9372 26.5921 19.2705 23.7216L18.4697 20.2724C18.1458 18.8781 18.9564 17.4746 20.3271 17.0459C23.3752 16.0926 26.5654 15.3756 29.542 14.9306ZM33.4023 20.3427C33.4121 20.4036 33.8162 21.8684 33.6377 23.6474C33.9558 23.5419 34.2962 23.4933 34.6054 23.5175C35.7301 23.6052 36.2383 24.6045 36.2431 24.6142C36.3388 24.8073 36.2592 25.0417 36.0664 25.1377C35.8731 25.2327 35.6378 25.155 35.542 24.9609C35.5373 24.952 35.21 24.3476 34.5449 24.2959C34.2105 24.2699 33.7942 24.3804 33.5019 24.5654C33.2031 26.0853 32.5533 27.504 31.6025 28.7187C32.4582 28.6196 33.0505 28.3094 33.2802 28.1884C33.406 28.1229 33.5573 28.1299 33.6757 28.207C33.7942 28.2842 33.8613 28.4202 33.8515 28.5615C33.8304 28.8638 33.6917 29.914 32.7783 30.7041C32.0086 31.3699 31.1417 31.4687 30.6943 31.4687C30.0985 31.4687 29.4605 31.2875 28.9101 30.9004C28.072 31.1992 27.1742 31.2288 26.333 31.0039C26.1642 30.9584 25.9964 30.9078 25.83 30.8535C26.5544 31.9846 27.5225 32.9451 28.6738 33.6621C28.6875 33.671 30.0919 34.5244 32.0341 33.8798C33.382 33.4325 34.6314 32.4012 35.747 30.8154C36.6921 29.4716 37.2526 27.8968 37.3672 26.2607L37.6152 22.7285C37.6857 21.7177 36.9502 20.8088 35.9394 20.6601C35.1104 20.5375 34.259 20.4312 33.4023 20.3427ZM31.8701 17.1963C31.641 16.2089 30.6689 15.553 29.6572 15.7041C26.5107 16.1743 23.3682 16.9134 20.5595 17.792C19.5853 18.0964 19.0017 19.1084 19.2304 20.0957L20.0312 23.5449C20.7758 26.7508 23.236 29.3665 26.5351 30.25C27.671 30.5535 28.8875 30.2777 29.7822 29.5039C32.2965 27.3245 33.4323 23.9258 32.6709 20.6455L31.8701 17.1963ZM29.7148 23.58C29.8501 23.6191 29.9546 23.7284 29.9863 23.8662C30.3777 25.5518 29.3175 27.2277 27.6328 27.6152C25.9746 27.9983 24.259 26.9736 23.8652 25.2724C23.8336 25.1345 23.8787 24.9904 23.9834 24.8955C24.0888 24.8006 24.2372 24.7692 24.3711 24.8144C24.6999 24.9265 25.6995 25.2662 27.0117 24.9511C28.2416 24.6563 29.0436 23.9617 29.331 23.6767C29.4317 23.5778 29.5785 23.5411 29.7148 23.58ZM22.3261 20.4062C23.0074 20.2438 23.7333 20.4627 24.2197 20.9775C24.3683 21.1342 24.3608 21.3824 24.2041 21.5302C24.0474 21.678 23.7999 21.6712 23.6513 21.5146C23.3517 21.1971 22.9243 21.067 22.5078 21.166C21.8647 21.3195 21.6368 21.9553 21.6279 21.9804C21.5629 22.1839 21.3459 22.2984 21.1416 22.2363C20.9355 22.1738 20.8186 21.9551 20.8808 21.749C20.8841 21.7376 21.2213 20.6695 22.3261 20.4062ZM29.2187 18.8232C29.8992 18.6608 30.6259 18.8806 31.1123 19.3955C31.2604 19.5521 31.253 19.7995 31.0966 19.9472C30.9399 20.0958 30.6917 20.0883 30.5439 19.9316C30.2443 19.6144 29.8167 19.485 29.4004 19.5839C28.756 19.7374 28.5267 20.3794 28.5195 20.3994C28.4667 20.5649 28.3139 20.6707 28.1484 20.6709C27.8821 20.6709 27.6958 20.412 27.7754 20.1611C27.7892 20.1173 28.1275 19.0831 29.2187 18.8232Z" fill="white"/>
<path d="M29.542 14.9306L29.4681 14.4361L29.468 14.4361L29.542 14.9306ZM32.6318 17.0195L32.1447 17.1325L32.1448 17.1327L32.6318 17.0195ZM33.2168 19.5371L32.7297 19.6502L32.8108 19.9992L33.1674 20.0346L33.2168 19.5371ZM36.0537 19.8867L35.9804 20.3813L35.9804 20.3813L36.0537 19.8867ZM38.3945 22.7841L38.8933 22.8192L38.8933 22.8191L38.3945 22.7841ZM38.1464 26.3154L37.6477 26.2804L37.6477 26.2805L38.1464 26.3154ZM36.3857 31.2646L36.7946 31.5524L36.7946 31.5523L36.3857 31.2646ZM32.2802 34.6211L32.4377 35.0956L32.438 35.0955L32.2802 34.6211ZM28.2607 34.3252L27.9963 34.7495L27.9964 34.7496L28.2607 34.3252ZM24.6699 30.3945L25.1165 30.1696L25.0389 30.0157L24.883 29.9422L24.6699 30.3945ZM19.2705 23.7216L18.7834 23.8347L18.7834 23.8348L19.2705 23.7216ZM18.4697 20.2724L18.9567 20.1594L18.9567 20.1593L18.4697 20.2724ZM20.3271 17.0459L20.1779 16.5687L20.1778 16.5687L20.3271 17.0459ZM33.4023 20.3427L33.4537 19.8454L32.8056 19.7784L32.9086 20.4218L33.4023 20.3427ZM33.6377 23.6474L33.1402 23.5975L33.0632 24.3647L33.7951 24.122L33.6377 23.6474ZM34.6054 23.5175L34.5663 24.016L34.5666 24.016L34.6054 23.5175ZM36.2431 24.6142L36.6912 24.3923L36.6903 24.3906L36.2431 24.6142ZM36.0664 25.1377L36.287 25.5864L36.2891 25.5853L36.0664 25.1377ZM35.542 24.9609L35.9904 24.7395L35.9846 24.7285L35.542 24.9609ZM34.5449 24.2959L34.5837 23.7974L34.5836 23.7974L34.5449 24.2959ZM33.5019 24.5654L33.2345 24.1429L33.0528 24.2579L33.0113 24.4689L33.5019 24.5654ZM31.6025 28.7187L31.2088 28.4105L30.4711 29.3531L31.66 29.2154L31.6025 28.7187ZM33.2802 28.1884L33.0491 27.7451L33.0473 27.746L33.2802 28.1884ZM33.6757 28.207L33.9486 27.788L33.9484 27.7879L33.6757 28.207ZM33.8515 28.5615L34.3503 28.5964L34.3503 28.5959L33.8515 28.5615ZM32.7783 30.7041L32.4512 30.3259L32.4512 30.3259L32.7783 30.7041ZM30.6943 31.4687L30.6943 31.9687H30.6943V31.4687ZM28.9101 30.9004L29.1978 30.4914L28.986 30.3425L28.7422 30.4294L28.9101 30.9004ZM26.333 31.0039L26.203 31.4867L26.2038 31.4869L26.333 31.0039ZM25.83 30.8535L25.9854 30.3782L24.6531 29.9428L25.409 31.1231L25.83 30.8535ZM28.6738 33.6621L28.9468 33.2431L28.9381 33.2376L28.6738 33.6621ZM32.0341 33.8798L32.1916 34.3544L32.1916 34.3544L32.0341 33.8798ZM35.747 30.8154L36.156 31.1031L36.156 31.103L35.747 30.8154ZM37.3672 26.2607L36.8684 26.2257L36.8684 26.2258L37.3672 26.2607ZM37.6152 22.7285L38.114 22.7635L38.114 22.7633L37.6152 22.7285ZM35.9394 20.6601L35.8663 21.1547L35.8667 21.1548L35.9394 20.6601ZM31.8701 17.1963L31.383 17.3093L31.383 17.3093L31.8701 17.1963ZM29.6572 15.7041L29.5834 15.2095L29.5833 15.2096L29.6572 15.7041ZM20.5595 17.792L20.7087 18.2692L20.7088 18.2692L20.5595 17.792ZM19.2304 20.0957L18.7433 20.2085L18.7434 20.2087L19.2304 20.0957ZM20.0312 23.5449L19.5442 23.658L19.5442 23.658L20.0312 23.5449ZM26.5351 30.25L26.4058 30.7329L26.406 30.733L26.5351 30.25ZM29.7822 29.5039L30.1093 29.8821L30.1097 29.8817L29.7822 29.5039ZM32.6709 20.6455L33.1579 20.5324L33.1579 20.5324L32.6709 20.6455ZM29.7148 23.58L29.8536 23.0997L29.8522 23.0993L29.7148 23.58ZM29.9863 23.8662L29.499 23.9782L29.4992 23.9793L29.9863 23.8662ZM27.6328 27.6152L27.5207 27.1279L27.5202 27.128L27.6328 27.6152ZM23.8652 25.2724L23.3778 25.384L23.3781 25.3852L23.8652 25.2724ZM23.9834 24.8955L23.6489 24.5238L23.6473 24.5252L23.9834 24.8955ZM24.3711 24.8144L24.5323 24.3411L24.5312 24.3408L24.3711 24.8144ZM27.0117 24.9511L26.8951 24.4649L26.8949 24.465L27.0117 24.9511ZM29.331 23.6767L28.9805 23.3201L28.979 23.3217L29.331 23.6767ZM22.3261 20.4062L22.442 20.8926L22.4421 20.8926L22.3261 20.4062ZM24.2197 20.9775L23.8563 21.3209L23.8569 21.3215L24.2197 20.9775ZM24.2041 21.5302L24.5471 21.894L24.5471 21.894L24.2041 21.5302ZM23.6513 21.5146L23.2877 21.8578L23.2886 21.8588L23.6513 21.5146ZM22.5078 21.166L22.3922 20.6795L22.3917 20.6796L22.5078 21.166ZM21.6279 21.9804L21.1567 21.8132L21.154 21.8207L21.1516 21.8283L21.6279 21.9804ZM21.1416 22.2363L21.287 21.7579L21.2866 21.7578L21.1416 22.2363ZM20.8808 21.749L21.3596 21.8934L21.3617 21.8861L20.8808 21.749ZM29.2187 18.8232L29.3346 19.3096L29.3348 19.3095L29.2187 18.8232ZM31.1123 19.3955L30.7488 19.7388L30.749 19.739L31.1123 19.3955ZM31.0966 19.9472L30.7533 19.5837L30.7526 19.5844L31.0966 19.9472ZM30.5439 19.9316L30.9077 19.5886L30.9074 19.5883L30.5439 19.9316ZM29.4004 19.5839L29.2847 19.0975L29.2845 19.0976L29.4004 19.5839ZM28.5195 20.3994L28.049 20.2302L28.0459 20.2388L28.0431 20.2475L28.5195 20.3994ZM28.1484 20.6709V21.1709L28.149 21.1709L28.1484 20.6709ZM27.7754 20.1611L28.252 20.3122L28.2523 20.3112L27.7754 20.1611ZM29.542 14.9306L29.6158 15.4251C30.7842 15.2507 31.8817 15.999 32.1447 17.1325L32.6318 17.0195L33.1189 16.9065C32.7371 15.2612 31.1482 14.1852 29.4681 14.4361L29.542 14.9306ZM32.6318 17.0195L32.1448 17.1327L32.7297 19.6502L33.2168 19.5371L33.7038 19.4239L33.1188 16.9063L32.6318 17.0195ZM33.2168 19.5371L33.1674 20.0346C34.1169 20.1289 35.0622 20.2453 35.9804 20.3813L36.0537 19.8867L36.1269 19.3921C35.1923 19.2536 34.2311 19.1353 33.2661 19.0395L33.2168 19.5371ZM36.0537 19.8867L35.9804 20.3813C37.1455 20.5538 37.9772 21.5863 37.8957 22.7492L38.3945 22.7841L38.8933 22.8191C39.0116 21.1301 37.8039 19.6404 36.1269 19.3921L36.0537 19.8867ZM38.3945 22.7841L37.8957 22.7491L37.6477 26.2804L38.1464 26.3154L38.6452 26.3504L38.8933 22.8192L38.3945 22.7841ZM38.1464 26.3154L37.6477 26.2805C37.5298 27.9669 36.9516 29.5912 35.9768 30.9769L36.3857 31.2646L36.7946 31.5523C37.874 30.018 38.5146 28.219 38.6452 26.3503L38.1464 26.3154ZM36.3857 31.2646L35.9769 30.9768C34.8037 32.6433 33.5019 33.688 32.1225 34.1466L32.2802 34.6211L32.438 35.0955C34.0776 34.5504 35.5381 33.3372 36.7946 31.5524L36.3857 31.2646ZM32.2802 34.6211L32.1227 34.1465C30.6899 34.6221 29.2702 34.3648 28.525 33.9007L28.2607 34.3252L27.9964 34.7496C29.0165 35.385 30.7492 35.6561 32.4377 35.0956L32.2802 34.6211ZM28.2607 34.3252L28.5251 33.9008C27.0637 32.9904 25.8879 31.7018 25.1165 30.1696L24.6699 30.3945L24.2233 30.6194C25.0774 32.3155 26.3792 33.7421 27.9963 34.7495L28.2607 34.3252ZM24.6699 30.3945L24.883 29.9422C22.2402 28.697 20.3902 26.3324 19.7575 23.6085L19.2705 23.7216L18.7834 23.8348C19.4842 26.8517 21.5326 29.4691 24.4568 30.8468L24.6699 30.3945ZM19.2705 23.7216L19.7575 23.6086L18.9567 20.1594L18.4697 20.2724L17.9826 20.3855L18.7834 23.8347L19.2705 23.7216ZM18.4697 20.2724L18.9567 20.1593C18.6926 19.0225 19.3527 17.8745 20.4764 17.5231L20.3271 17.0459L20.1778 16.5687C18.5602 17.0747 17.5989 18.7336 17.9827 20.3856L18.4697 20.2724ZM20.3271 17.0459L20.4764 17.5231C23.499 16.5777 26.664 15.8664 29.6159 15.4251L29.542 14.9306L29.468 14.4361C26.4668 14.8848 23.2514 15.6074 20.1779 16.5687L20.3271 17.0459ZM33.4023 20.3427L32.9086 20.4218C32.9269 20.5364 33.3102 21.9031 33.1402 23.5975L33.6377 23.6474L34.1352 23.6974C34.2294 22.7588 34.1697 21.9073 34.0862 21.2844C34.0443 20.9721 33.9962 20.7154 33.9576 20.5319C33.9383 20.44 33.9215 20.3667 33.9092 20.3145C33.8914 20.2388 33.8934 20.2474 33.896 20.2637L33.4023 20.3427ZM33.6377 23.6474L33.7951 24.122C34.0598 24.0342 34.3331 23.9977 34.5663 24.016L34.6054 23.5175L34.6446 23.0191C34.2593 22.9888 33.8518 23.0496 33.4803 23.1728L33.6377 23.6474ZM34.6054 23.5175L34.5666 24.016C34.979 24.0482 35.2831 24.246 35.4948 24.4528C35.7096 24.6626 35.8082 24.8624 35.7959 24.8378L36.2431 24.6142L36.6903 24.3906C36.6732 24.3563 36.5152 24.0516 36.1936 23.7374C35.8688 23.4203 35.3566 23.0746 34.6443 23.0191L34.6054 23.5175ZM36.2431 24.6142L35.7951 24.8362C35.7677 24.7808 35.7909 24.7163 35.8436 24.69L36.0664 25.1377L36.2891 25.5853C36.7276 25.3671 36.9099 24.8338 36.6912 24.3923L36.2431 24.6142ZM36.0664 25.1377L35.8458 24.689C35.8963 24.6641 35.9621 24.6826 35.9903 24.7396L35.542 24.9609L35.0936 25.1823C35.3134 25.6274 35.85 25.8012 36.287 25.5864L36.0664 25.1377ZM35.542 24.9609L35.9846 24.7285C35.9665 24.6938 35.8537 24.4911 35.6371 24.2835C35.4184 24.0739 35.0673 23.835 34.5837 23.7974L34.5449 24.2959L34.5061 24.7944C34.6876 24.8085 34.8327 24.8976 34.9451 25.0054C35.0595 25.1151 35.1128 25.219 35.0993 25.1933L35.542 24.9609ZM34.5449 24.2959L34.5836 23.7974C34.1338 23.7625 33.6111 23.9045 33.2345 24.1429L33.5019 24.5654L33.7694 24.9879C33.9773 24.8562 34.2871 24.7774 34.5062 24.7944L34.5449 24.2959ZM33.5019 24.5654L33.0113 24.4689C32.7277 25.9117 32.111 27.2578 31.2088 28.4105L31.6025 28.7187L31.9962 29.0269C32.9955 27.7501 33.6785 26.259 33.9925 24.6618L33.5019 24.5654ZM31.6025 28.7187L31.66 29.2154C32.6085 29.1055 33.2663 28.7608 33.5132 28.6309L33.2802 28.1884L33.0473 27.746C32.8346 27.858 32.308 28.1337 31.545 28.222L31.6025 28.7187ZM33.2802 28.1884L33.5114 28.6318C33.4781 28.6492 33.4367 28.648 33.403 28.6261L33.6757 28.207L33.9484 27.7879C33.6779 27.6119 33.334 27.5966 33.0491 27.7451L33.2802 28.1884ZM33.6757 28.207L33.4029 28.626C33.3676 28.603 33.3501 28.5647 33.3527 28.5271L33.8515 28.5615L34.3503 28.5959C34.3724 28.2758 34.2208 27.9653 33.9486 27.788L33.6757 28.207ZM33.8515 28.5615L33.3527 28.5266C33.3352 28.7776 33.2156 29.6647 32.4512 30.3259L32.7783 30.7041L33.1054 31.0822C34.1677 30.1634 34.3256 28.9499 34.3503 28.5964L33.8515 28.5615ZM32.7783 30.7041L32.4512 30.3259C31.8073 30.8829 31.0776 30.9687 30.6943 30.9687V31.4687V31.9687C31.2058 31.9687 32.2099 31.8568 33.1054 31.0822L32.7783 30.7041ZM30.6943 31.4687L30.6943 30.9687C30.197 30.9687 29.6603 30.8167 29.1978 30.4914L28.9101 30.9004L28.6225 31.3093C29.2607 31.7582 30 31.9687 30.6943 31.9687L30.6943 31.4687ZM28.9101 30.9004L28.7422 30.4294C28.0011 30.6936 27.207 30.72 26.4621 30.5208L26.333 31.0039L26.2038 31.4869C27.1414 31.7376 28.1429 31.7047 29.078 31.3713L28.9101 30.9004ZM26.333 31.0039L26.463 30.5211C26.3038 30.4782 26.1444 30.4302 25.9854 30.3782L25.83 30.8535L25.6747 31.3287C25.8483 31.3855 26.0247 31.4387 26.203 31.4867L26.333 31.0039ZM25.83 30.8535L25.409 31.1231C26.1732 32.3165 27.1946 33.33 28.4095 34.0865L28.6738 33.6621L28.9381 33.2376C27.8503 32.5602 26.9357 31.6527 26.2511 30.5838L25.83 30.8535ZM28.6738 33.6621L28.4008 34.081C28.4792 34.1321 30.0463 35.0664 32.1916 34.3544L32.0341 33.8798L31.8766 33.4053C30.1376 33.9825 28.8958 33.21 28.9467 33.2431L28.6738 33.6621ZM32.0341 33.8798L32.1916 34.3544C33.6724 33.8629 35.0008 32.745 36.156 31.1031L35.747 30.8154L35.3381 30.5277C34.2619 32.0574 33.0915 33.0021 31.8766 33.4053L32.0341 33.8798ZM35.747 30.8154L36.156 31.103C37.1534 29.6849 37.745 28.0228 37.8659 26.2956L37.3672 26.2607L36.8684 26.2258C36.7602 27.7708 36.2309 29.2582 35.3381 30.5278L35.747 30.8154ZM37.3672 26.2607L37.8659 26.2957L38.114 22.7635L37.6152 22.7285L37.1164 22.6935L36.8684 26.2257L37.3672 26.2607ZM37.6152 22.7285L38.114 22.7633C38.2028 21.4889 37.2787 20.3517 36.0122 20.1654L35.9394 20.6601L35.8667 21.1548C36.6217 21.2659 37.1685 21.9464 37.1164 22.6937L37.6152 22.7285ZM35.9394 20.6601L36.0126 20.1655C35.176 20.0418 34.3173 19.9346 33.4537 19.8454L33.4023 20.3427L33.3509 20.8401C34.2007 20.9279 35.0448 21.0333 35.8663 21.1547L35.9394 20.6601ZM31.8701 17.1963L32.3571 17.0832C32.0683 15.8385 30.8494 15.0206 29.5834 15.2095L29.6572 15.7041L29.731 16.1986C30.4885 16.0855 31.2136 16.5793 31.383 17.3093L31.8701 17.1963ZM29.6572 15.7041L29.5833 15.2096C26.4105 15.6837 23.2428 16.4287 20.4103 17.3148L20.5595 17.792L20.7088 18.2692C23.4937 17.398 26.6109 16.6648 29.7311 16.1986L29.6572 15.7041ZM20.5595 17.792L20.4104 17.3147C19.1892 17.6964 18.4549 18.9637 18.7433 20.2085L19.2304 20.0957L19.7175 19.9828C19.5485 19.2531 19.9814 18.4965 20.7087 18.2692L20.5595 17.792ZM19.2304 20.0957L18.7434 20.2087L19.5442 23.658L20.0312 23.5449L20.5183 23.4318L19.7175 19.9826L19.2304 20.0957ZM20.0312 23.5449L19.5442 23.658C20.3301 27.0417 22.9261 29.8011 26.4058 30.7329L26.5351 30.25L26.6645 29.767C23.5458 28.9318 21.2216 26.4599 20.5182 23.4318L20.0312 23.5449ZM26.5351 30.25L26.406 30.733C27.7013 31.0792 29.0887 30.7646 30.1093 29.8821L29.7822 29.5039L29.4551 29.1257C28.6862 29.7907 27.6407 30.0279 26.6642 29.7669L26.5351 30.25ZM29.7822 29.5039L30.1097 29.8817C32.7624 27.5825 33.9618 23.9955 33.1579 20.5324L32.6709 20.6455L32.1838 20.7585C32.9029 23.856 31.8307 27.0666 29.4547 29.126L29.7822 29.5039ZM32.6709 20.6455L33.1579 20.5324L32.3571 17.0832L31.8701 17.1963L31.383 17.3093L32.1838 20.7585L32.6709 20.6455ZM29.7148 23.58L29.576 24.0604C29.5388 24.0496 29.5084 24.0192 29.499 23.9782L29.9863 23.8662L30.4736 23.7542C30.4008 23.4375 30.1614 23.1886 29.8536 23.0997L29.7148 23.58ZM29.9863 23.8662L29.4992 23.9793C29.8274 25.3924 28.939 26.8017 27.5207 27.1279L27.6328 27.6152L27.7449 28.1025C29.696 27.6537 30.928 25.7112 30.4733 23.7531L29.9863 23.8662ZM27.6328 27.6152L27.5202 27.128C26.1242 27.4506 24.6823 26.5852 24.3523 25.1597L23.8652 25.2724L23.3781 25.3852C23.8357 27.3621 25.8249 28.5461 27.7453 28.1024L27.6328 27.6152ZM23.8652 25.2724L24.3526 25.1609C24.3612 25.1985 24.349 25.2389 24.3194 25.2657L23.9834 24.8955L23.6473 24.5252C23.4085 24.742 23.306 25.0704 23.3778 25.384L23.8652 25.2724ZM23.9834 24.8955L24.3179 25.2671C24.2909 25.2913 24.2507 25.3015 24.2109 25.2881L24.3711 24.8144L24.5312 24.3408C24.2237 24.2368 23.8867 24.3098 23.6489 24.5238L23.9834 24.8955ZM24.3711 24.8144L24.2098 25.2877C24.5653 25.4088 25.6759 25.7861 27.1284 25.4373L27.0117 24.9511L26.8949 24.465C25.7231 24.7463 24.8345 24.4441 24.5323 24.3411L24.3711 24.8144ZM27.0117 24.9511L27.1282 25.4374C28.4803 25.1132 29.3601 24.3521 29.6831 24.0318L29.331 23.6767L28.979 23.3217C28.7271 23.5714 28.0029 24.1994 26.8951 24.4649L27.0117 24.9511ZM29.331 23.6767L29.6815 24.0333C29.6522 24.0622 29.612 24.0707 29.5774 24.0608L29.7148 23.58L29.8522 23.0993C29.5449 23.0115 29.2113 23.0934 28.9806 23.3201L29.331 23.6767ZM22.3261 20.4062L22.4421 20.8926C22.9471 20.7722 23.491 20.9343 23.8563 21.3209L24.2197 20.9775L24.5831 20.6341C23.9756 19.9912 23.0676 19.7155 22.2102 19.9198L22.3261 20.4062ZM24.2197 20.9775L23.8569 21.3215C23.8145 21.2769 23.8171 21.2079 23.861 21.1665L24.2041 21.5302L24.5471 21.894C24.9045 21.557 24.9221 20.9916 24.5825 20.6335L24.2197 20.9775ZM24.2041 21.5302L23.8611 21.1664C23.9049 21.1251 23.9731 21.1273 24.014 21.1705L23.6513 21.5146L23.2886 21.8588C23.6268 22.2152 24.1898 22.2309 24.5471 21.894L24.2041 21.5302ZM23.6513 21.5146L24.015 21.1714C23.5955 20.727 22.9865 20.5383 22.3922 20.6795L22.5078 21.166L22.6234 21.6524C22.8621 21.5957 23.1079 21.6673 23.2877 21.8578L23.6513 21.5146ZM22.5078 21.166L22.3917 20.6796C21.9241 20.7912 21.6164 21.0773 21.4327 21.3178C21.2501 21.5568 21.1699 21.7758 21.1567 21.8132L21.6279 21.9804L22.0991 22.1476C22.0991 22.1476 22.0991 22.1477 22.0991 22.1477C22.0991 22.1477 22.0991 22.1477 22.0991 22.1478C22.099 22.1479 22.099 22.148 22.099 22.148C22.0989 22.1482 22.0989 22.1483 22.0989 22.1483C22.0989 22.1483 22.0991 22.1478 22.0994 22.1469C22.1001 22.1451 22.1015 22.1415 22.1037 22.1362C22.1081 22.1256 22.1155 22.1086 22.1262 22.0872C22.1479 22.0436 22.1812 21.9852 22.2274 21.9248C22.3206 21.8028 22.4483 21.6942 22.6238 21.6523L22.5078 21.166ZM21.6279 21.9804L21.1516 21.8283C21.1694 21.7726 21.2285 21.7401 21.287 21.7579L21.1416 22.2363L20.9962 22.7147C21.4634 22.8567 21.9564 22.5952 22.1042 22.1326L21.6279 21.9804ZM21.1416 22.2363L21.2866 21.7578C21.3451 21.7755 21.3769 21.8359 21.3595 21.8934L20.8808 21.749L20.4021 21.6046C20.2604 22.0743 20.5259 22.5721 20.9965 22.7148L21.1416 22.2363ZM20.8808 21.749L21.3617 21.8861C21.351 21.9236 21.4133 21.7117 21.5924 21.4693C21.7674 21.2327 22.0361 20.9893 22.442 20.8926L22.3261 20.4062L22.2102 19.9198C21.5114 20.0864 21.0591 20.5087 20.7884 20.8748C20.5219 21.2352 20.4139 21.563 20.4 21.6119L20.8808 21.749ZM29.2187 18.8232L29.3348 19.3095C29.8385 19.1893 30.3832 19.3518 30.7488 19.7388L31.1123 19.3955L31.4757 19.0521C30.8686 18.4094 29.9599 18.1323 29.1026 18.3369L29.2187 18.8232ZM31.1123 19.3955L30.749 19.739C30.7069 19.6946 30.7093 19.6253 30.7533 19.5837L31.0966 19.9472L31.44 20.3107C31.7968 19.9737 31.814 19.4097 31.4755 19.0519L31.1123 19.3955ZM31.0966 19.9472L30.7526 19.5844C30.7973 19.542 30.8662 19.5446 30.9077 19.5886L30.5439 19.9316L30.1801 20.2746C30.5172 20.632 31.0826 20.6496 31.4407 20.3101L31.0966 19.9472ZM30.5439 19.9316L30.9074 19.5883C30.4876 19.1437 29.8782 18.9564 29.2847 19.0975L29.4004 19.5839L29.516 20.0704C29.7552 20.0135 30.0011 20.0851 30.1804 20.2749L30.5439 19.9316ZM29.4004 19.5839L29.2845 19.0976C28.8153 19.2093 28.5068 19.4979 28.3233 19.7387C28.1406 19.9785 28.0607 20.1976 28.049 20.2302L28.5195 20.3994L28.99 20.5685C28.9902 20.568 28.9901 20.5683 28.9901 20.5684C28.9901 20.5684 28.9902 20.568 28.9905 20.5672C28.9911 20.5655 28.9925 20.562 28.9947 20.5569C28.999 20.5465 29.0064 20.5296 29.0171 20.5081C29.0388 20.4645 29.0723 20.4057 29.1187 20.3447C29.2128 20.2212 29.3411 20.112 29.5162 20.0703L29.4004 19.5839ZM28.5195 20.3994L28.0431 20.2475C28.0583 20.1999 28.1022 20.1709 28.1478 20.1709L28.1484 20.6709L28.149 21.1709C28.5256 21.1704 28.8752 20.9299 28.9959 20.5512L28.5195 20.3994ZM28.1484 20.6709V20.1709C28.2235 20.1709 28.2736 20.2438 28.252 20.3122L27.7754 20.1611L27.2987 20.01C27.118 20.5802 27.5406 21.1709 28.1484 21.1709V20.6709ZM27.7754 20.1611L28.2523 20.3112C28.2494 20.3203 28.3161 20.1087 28.4928 19.8735C28.6664 19.6423 28.9323 19.4054 29.3346 19.3096L29.2187 18.8232L29.1029 18.3368C27.7299 18.6639 27.3183 19.9479 27.2984 20.0109L27.7754 20.1611Z" fill="white" mask="url(#path-3-outside-1_57_208)"/>
<g filter="url(#filter1_dd_57_208)">
<circle cx="28.5" cy="67" r="5" fill="white"/>
<circle cx="28.5" cy="67" r="4" stroke="#44AE79" stroke-width="2"/>
</g>
<defs>
<filter id="filter0_dd_57_208" x="0" y="0" width="57.0698" height="74" filterUnits="userSpaceOnUse" color-interpolation-filters="sRGB">
<feFlood flood-opacity="0" result="BackgroundImageFix"/>
<feColorMatrix in="SourceAlpha" type="matrix" values="0 0 0 0 0 0 0 0 0 0 0 0 0 0 0 0 0 0 127 0" result="hardAlpha"/>
<feOffset dy="2"/>
<feGaussianBlur stdDeviation="1"/>
<feComposite in2="hardAlpha" operator="out"/>
<feColorMatrix type="matrix" values="0 0 0 0 0 0 0 0 0 0 0 0 0 0 0 0 0 0 0.1 0"/>
<feBlend mode="normal" in2="BackgroundImageFix" result="effect1_dropShadow_57_208"/>
<feColorMatrix in="SourceAlpha" type="matrix" values="0 0 0 0 0 0 0 0 0 0 0 0 0 0 0 0 0 0 127 0" result="hardAlpha"/>
<feOffset dy="4"/>
<feGaussianBlur stdDeviation="4.5"/>
<feComposite in2="hardAlpha" operator="out"/>
<feColorMatrix type="matrix" values="0 0 0 0 0 0 0 0 0 0 0 0 0 0 0 0 0 0 0.15 0"/>
<feBlend mode="normal" in2="effect1_dropShadow_57_208" result="effect2_dropShadow_57_208"/>
<feBlend mode="normal" in="SourceGraphic" in2="effect2_dropShadow_57_208" result="shape"/>
</filter>
<filter id="filter1_dd_57_208" x="14.5" y="57" width="28" height="28" filterUnits="userSpaceOnUse" color-interpolation-filters="sRGB">
<feFlood flood-opacity="0" result="BackgroundImageFix"/>
<feColorMatrix in="SourceAlpha" type="matrix" values="0 0 0 0 0 0 0 0 0 0 0 0 0 0 0 0 0 0 127 0" result="hardAlpha"/>
<feOffset dy="4"/>
<feGaussianBlur stdDeviation="4.5"/>
<feComposite in2="hardAlpha" operator="out"/>
<feColorMatrix type="matrix" values="0 0 0 0 0 0 0 0 0 0 0 0 0 0 0 0 0 0 0.15 0"/>
<feBlend mode="normal" in2="BackgroundImageFix" result="effect1_dropShadow_57_208"/>
<feColorMatrix in="SourceAlpha" type="matrix" values="0 0 0 0 0 0 0 0 0 0 0 0 0 0 0 0 0 0 127 0" result="hardAlpha"/>
<feOffset dy="2"/>
<feGaussianBlur stdDeviation="1"/>
<feComposite in2="hardAlpha" operator="out"/>
<feColorMatrix type="matrix" values="0 0 0 0 0 0 0 0 0 0 0 0 0 0 0 0 0 0 0.1 0"/>
<feBlend mode="normal" in2="effect1_dropShadow_57_208" result="effect2_dropShadow_57_208"/>
<feBlend mode="normal" in="SourceGraphic" in2="effect2_dropShadow_57_208" result="shape"/>
</filter>
</defs>
</svg>
