<svg width="48" height="72" viewBox="0 0 48 72" fill="none" xmlns="http://www.w3.org/2000/svg">
<g filter="url(#filter0_dd_8_399)">
<path d="M24 5C15.7071 5 9 11.7295 9 20.05C9 31.3375 24 48 24 48C24 48 39 31.3375 39 20.05C39 11.7295 32.2929 5 24 5ZM24 25.425C21.0429 25.425 18.6429 23.017 18.6429 20.05C18.6429 17.083 21.0429 14.675 24 14.675C26.9571 14.675 29.3571 17.083 29.3571 20.05C29.3571 23.017 26.9571 25.425 24 25.425Z" fill="white"/>
</g>
<rect x="11" y="7" width="26" height="26" rx="13" fill="#FFA600"/>
<path fill-rule="evenodd" clip-rule="evenodd" d="M28.9247 25.9141C29.1122 25.807 29.3886 25.807 29.5761 25.9141L31.3261 26.9141C31.5351 27.0336 31.5595 27.2438 31.3798 27.3838C31.2005 27.5233 30.8847 27.5398 30.6747 27.4199L29.2499 26.6055L28.8016 26.8623C28.0524 27.2902 26.9475 27.2901 26.1981 26.8623L25.7499 26.6055L25.3016 26.8623C24.5524 27.2902 23.4475 27.2901 22.6981 26.8623L22.2499 26.6055L21.8016 26.8623C21.0524 27.2902 19.9475 27.2901 19.1981 26.8623L18.7499 26.6055L17.3251 27.4199C17.1151 27.5397 16.7993 27.5233 16.62 27.3838C16.4405 27.2439 16.4649 27.0336 16.6737 26.9141L18.4247 25.9141C18.6121 25.8071 18.8876 25.8071 19.0751 25.9141L19.8495 26.3555C20.2239 26.5692 20.7759 26.5692 21.1503 26.3555L21.9247 25.9141C22.1122 25.807 22.3886 25.807 22.5761 25.9141L23.3495 26.3555C23.7238 26.5692 24.2759 26.5692 24.6503 26.3555L25.4247 25.9141C25.6122 25.807 25.8886 25.807 26.0761 25.9141L26.8495 26.3555C27.2238 26.5692 27.7759 26.5692 28.1503 26.3555L28.9247 25.9141ZM27.5507 12.5C28.8111 12.5 29.8338 13.4796 29.8339 14.6875V14.9307C29.8339 15.1992 29.6063 15.417 29.3261 15.417C29.0459 15.4169 28.8192 15.1992 28.8192 14.9307V14.6875C28.8192 14.0161 28.2513 13.4727 27.5507 13.4727C26.8501 13.4727 26.2831 14.0161 26.2831 14.6875V23.6807C26.2831 23.9492 26.0555 24.167 25.7753 24.167C25.4951 24.1669 25.2684 23.9492 25.2684 23.6807V22.9512H19.1815V23.6807C19.1815 23.9492 18.954 24.167 18.6737 24.167C18.3935 24.1669 18.1669 23.9492 18.1669 23.6807V14.6875C18.1669 13.4795 19.1887 12.5 20.4491 12.5C21.7095 12.5 22.7313 13.4796 22.7313 14.6875V14.9307C22.7313 15.1992 22.5047 15.417 22.2245 15.417C21.9442 15.417 21.7177 15.1992 21.7177 14.9307V14.6875C21.7176 14.0161 21.1497 13.4727 20.4491 13.4727L20.3192 13.4785C19.6798 13.5409 19.1816 14.0582 19.1815 14.6875V16.1455H25.2684V14.6875C25.2685 13.4796 26.2903 12.5001 27.5507 12.5ZM19.1815 21.9795H25.2684V20.0352H19.1815V21.9795ZM19.1815 19.0625H25.2684V17.1182H19.1815V19.0625Z" fill="white"/>
<g filter="url(#filter1_dd_8_399)">
<circle cx="24" cy="54" r="5" fill="white"/>
<circle cx="24" cy="54" r="4" stroke="#FFA600" stroke-width="2"/>
</g>
<defs>
<filter id="filter0_dd_8_399" x="0" y="0" width="48" height="61" filterUnits="userSpaceOnUse" color-interpolation-filters="sRGB">
<feFlood flood-opacity="0" result="BackgroundImageFix"/>
<feColorMatrix in="SourceAlpha" type="matrix" values="0 0 0 0 0 0 0 0 0 0 0 0 0 0 0 0 0 0 127 0" result="hardAlpha"/>
<feOffset dy="2"/>
<feGaussianBlur stdDeviation="1"/>
<feComposite in2="hardAlpha" operator="out"/>
<feColorMatrix type="matrix" values="0 0 0 0 0 0 0 0 0 0 0 0 0 0 0 0 0 0 0.1 0"/>
<feBlend mode="normal" in2="BackgroundImageFix" result="effect1_dropShadow_8_399"/>
<feColorMatrix in="SourceAlpha" type="matrix" values="0 0 0 0 0 0 0 0 0 0 0 0 0 0 0 0 0 0 127 0" result="hardAlpha"/>
<feOffset dy="4"/>
<feGaussianBlur stdDeviation="4.5"/>
<feComposite in2="hardAlpha" operator="out"/>
<feColorMatrix type="matrix" values="0 0 0 0 0 0 0 0 0 0 0 0 0 0 0 0 0 0 0.15 0"/>
<feBlend mode="normal" in2="effect1_dropShadow_8_399" result="effect2_dropShadow_8_399"/>
<feBlend mode="normal" in="SourceGraphic" in2="effect2_dropShadow_8_399" result="shape"/>
</filter>
<filter id="filter1_dd_8_399" x="10" y="44" width="28" height="28" filterUnits="userSpaceOnUse" color-interpolation-filters="sRGB">
<feFlood flood-opacity="0" result="BackgroundImageFix"/>
<feColorMatrix in="SourceAlpha" type="matrix" values="0 0 0 0 0 0 0 0 0 0 0 0 0 0 0 0 0 0 127 0" result="hardAlpha"/>
<feOffset dy="4"/>
<feGaussianBlur stdDeviation="4.5"/>
<feComposite in2="hardAlpha" operator="out"/>
<feColorMatrix type="matrix" values="0 0 0 0 0 0 0 0 0 0 0 0 0 0 0 0 0 0 0.15 0"/>
<feBlend mode="normal" in2="BackgroundImageFix" result="effect1_dropShadow_8_399"/>
<feColorMatrix in="SourceAlpha" type="matrix" values="0 0 0 0 0 0 0 0 0 0 0 0 0 0 0 0 0 0 127 0" result="hardAlpha"/>
<feOffset dy="2"/>
<feGaussianBlur stdDeviation="1"/>
<feComposite in2="hardAlpha" operator="out"/>
<feColorMatrix type="matrix" values="0 0 0 0 0 0 0 0 0 0 0 0 0 0 0 0 0 0 0.1 0"/>
<feBlend mode="normal" in2="effect1_dropShadow_8_399" result="effect2_dropShadow_8_399"/>
<feBlend mode="normal" in="SourceGraphic" in2="effect2_dropShadow_8_399" result="shape"/>
</filter>
</defs>
</svg>
